%TF.GenerationSoftware,KiCad,Pcbnew,(5.1.10-1-10_14)*%
%TF.CreationDate,2021-06-16T23:36:24-07:00*%
%TF.ProjectId,XDS-QuadAES-Studiohub,5844532d-5175-4616-9441-45532d537475,rev?*%
%TF.SameCoordinates,Original*%
%TF.FileFunction,Legend,Top*%
%TF.FilePolarity,Positive*%
%FSLAX46Y46*%
G04 Gerber Fmt 4.6, Leading zero omitted, Abs format (unit mm)*
G04 Created by KiCad (PCBNEW (5.1.10-1-10_14)) date 2021-06-16 23:36:24*
%MOMM*%
%LPD*%
G01*
G04 APERTURE LIST*
%ADD10C,0.200000*%
%ADD11C,0.120000*%
%ADD12C,0.015000*%
%ADD13C,0.150000*%
G04 APERTURE END LIST*
D10*
%TO.C,J1*%
X-59196159Y-113049961D02*
X-59196159Y-108249961D01*
X-90566159Y-113049961D02*
X-59196159Y-113049961D01*
X-90566159Y-108249961D02*
X-90566159Y-113049961D01*
X-59196159Y-97649961D02*
X-59196159Y-105149961D01*
X-90566159Y-94249961D02*
X-90566159Y-105149961D01*
X-59196159Y-92249961D02*
X-59196159Y-95049961D01*
X-90566159Y-88249961D02*
X-90566159Y-91749961D01*
X-59196159Y-84849961D02*
X-59196159Y-89249961D01*
X-73381159Y-84849961D02*
X-59196159Y-84849961D01*
X-90566159Y-84849961D02*
X-90566159Y-85149961D01*
X-76381159Y-84849961D02*
X-90566159Y-84849961D01*
D11*
%TO.C,JP1*%
X-77775760Y-83097680D02*
X-77775760Y-80437680D01*
X-80375760Y-83097680D02*
X-77775760Y-83097680D01*
X-80375760Y-80437680D02*
X-77775760Y-80437680D01*
X-80375760Y-83097680D02*
X-80375760Y-80437680D01*
X-81645760Y-83097680D02*
X-82975760Y-83097680D01*
X-82975760Y-83097680D02*
X-82975760Y-81767680D01*
%TO.C,JP2*%
X-66472760Y-80376720D02*
X-66472760Y-81706720D01*
X-67802760Y-80376720D02*
X-66472760Y-80376720D01*
X-69072760Y-80376720D02*
X-69072760Y-83036720D01*
X-69072760Y-83036720D02*
X-71672760Y-83036720D01*
X-69072760Y-80376720D02*
X-71672760Y-80376720D01*
X-71672760Y-80376720D02*
X-71672760Y-83036720D01*
%TO.C,J2*%
X-59437120Y-68165040D02*
X-59437120Y-78645040D01*
X-59437120Y-78645040D02*
X-90407120Y-78645040D01*
X-90407120Y-78645040D02*
X-90407120Y-68165040D01*
X-80212120Y-79539378D02*
X-80712120Y-79539378D01*
X-80712120Y-79539378D02*
X-80462120Y-79106365D01*
X-80462120Y-79106365D02*
X-80212120Y-79539378D01*
%TO.C,J1*%
D12*
X-55429492Y-84482341D02*
X-55429492Y-85196627D01*
X-55477111Y-85339484D01*
X-55572349Y-85434722D01*
X-55715206Y-85482341D01*
X-55810444Y-85482341D01*
X-54429492Y-85482341D02*
X-55000920Y-85482341D01*
X-54715206Y-85482341D02*
X-54715206Y-84482341D01*
X-54810444Y-84625199D01*
X-54905682Y-84720437D01*
X-55000920Y-84768056D01*
X-76862587Y-88043294D02*
X-76481635Y-88043294D01*
X-76938778Y-88271865D02*
X-76672111Y-87471865D01*
X-76405444Y-88271865D01*
X-75719730Y-88271865D02*
X-76176873Y-88271865D01*
X-75948301Y-88271865D02*
X-75948301Y-87471865D01*
X-76024492Y-87586151D01*
X-76100682Y-87662341D01*
X-76176873Y-87700437D01*
X-89136635Y-98496865D02*
X-89136635Y-97696865D01*
X-88946159Y-97696865D01*
X-88831873Y-97734961D01*
X-88755682Y-97811151D01*
X-88717587Y-97887341D01*
X-88679492Y-98039722D01*
X-88679492Y-98154008D01*
X-88717587Y-98306389D01*
X-88755682Y-98382580D01*
X-88831873Y-98458770D01*
X-88946159Y-98496865D01*
X-89136635Y-98496865D01*
X-87917587Y-98496865D02*
X-88374730Y-98496865D01*
X-88146159Y-98496865D02*
X-88146159Y-97696865D01*
X-88222349Y-97811151D01*
X-88298539Y-97887341D01*
X-88374730Y-97925437D01*
X-74244492Y-98420675D02*
X-74282587Y-98458770D01*
X-74396873Y-98496865D01*
X-74473063Y-98496865D01*
X-74587349Y-98458770D01*
X-74663539Y-98382580D01*
X-74701635Y-98306389D01*
X-74739730Y-98154008D01*
X-74739730Y-98039722D01*
X-74701635Y-97887341D01*
X-74663539Y-97811151D01*
X-74587349Y-97734961D01*
X-74473063Y-97696865D01*
X-74396873Y-97696865D01*
X-74282587Y-97734961D01*
X-74244492Y-97773056D01*
X-73482587Y-98496865D02*
X-73939730Y-98496865D01*
X-73711159Y-98496865D02*
X-73711159Y-97696865D01*
X-73787349Y-97811151D01*
X-73863539Y-97887341D01*
X-73939730Y-97925437D01*
X-62444968Y-87752818D02*
X-62330682Y-87790913D01*
X-62292587Y-87829008D01*
X-62254492Y-87905199D01*
X-62254492Y-88019484D01*
X-62292587Y-88095675D01*
X-62330682Y-88133770D01*
X-62406873Y-88171865D01*
X-62711635Y-88171865D01*
X-62711635Y-87371865D01*
X-62444968Y-87371865D01*
X-62368778Y-87409961D01*
X-62330682Y-87448056D01*
X-62292587Y-87524246D01*
X-62292587Y-87600437D01*
X-62330682Y-87676627D01*
X-62368778Y-87714722D01*
X-62444968Y-87752818D01*
X-62711635Y-87752818D01*
X-61492587Y-88171865D02*
X-61949730Y-88171865D01*
X-61721159Y-88171865D02*
X-61721159Y-87371865D01*
X-61797349Y-87486151D01*
X-61873539Y-87562341D01*
X-61949730Y-87600437D01*
%TO.C,JP1*%
D13*
X-84523379Y-82601013D02*
X-83809093Y-82601013D01*
X-83666236Y-82648632D01*
X-83570998Y-82743870D01*
X-83523379Y-82886727D01*
X-83523379Y-82981965D01*
X-83523379Y-82124822D02*
X-84523379Y-82124822D01*
X-84523379Y-81743870D01*
X-84475760Y-81648632D01*
X-84428140Y-81601013D01*
X-84332902Y-81553394D01*
X-84190045Y-81553394D01*
X-84094807Y-81601013D01*
X-84047188Y-81648632D01*
X-83999569Y-81743870D01*
X-83999569Y-82124822D01*
X-83523379Y-80601013D02*
X-83523379Y-81172441D01*
X-83523379Y-80886727D02*
X-84523379Y-80886727D01*
X-84380521Y-80981965D01*
X-84285283Y-81077203D01*
X-84237664Y-81172441D01*
X-85573666Y-83441920D02*
X-85668904Y-83394300D01*
X-85811761Y-83394300D01*
X-85954619Y-83441920D01*
X-86049857Y-83537158D01*
X-86097476Y-83632396D01*
X-86145095Y-83822872D01*
X-86145095Y-83965729D01*
X-86097476Y-84156205D01*
X-86049857Y-84251443D01*
X-85954619Y-84346681D01*
X-85811761Y-84394300D01*
X-85716523Y-84394300D01*
X-85573666Y-84346681D01*
X-85526047Y-84299062D01*
X-85526047Y-83965729D01*
X-85716523Y-83965729D01*
X-85097476Y-84394300D02*
X-85097476Y-83394300D01*
X-84526047Y-84394300D01*
X-84526047Y-83394300D01*
X-84049857Y-84394300D02*
X-84049857Y-83394300D01*
X-83811761Y-83394300D01*
X-83668904Y-83441920D01*
X-83573666Y-83537158D01*
X-83526047Y-83632396D01*
X-83478428Y-83822872D01*
X-83478428Y-83965729D01*
X-83526047Y-84156205D01*
X-83573666Y-84251443D01*
X-83668904Y-84346681D01*
X-83811761Y-84394300D01*
X-84049857Y-84394300D01*
X-82430809Y-83727634D02*
X-82049857Y-83727634D01*
X-82287952Y-83394300D02*
X-82287952Y-84251443D01*
X-82240333Y-84346681D01*
X-82145095Y-84394300D01*
X-82049857Y-84394300D01*
X-81573666Y-84394300D02*
X-81668904Y-84346681D01*
X-81716523Y-84299062D01*
X-81764142Y-84203824D01*
X-81764142Y-83918110D01*
X-81716523Y-83822872D01*
X-81668904Y-83775253D01*
X-81573666Y-83727634D01*
X-81430809Y-83727634D01*
X-81335571Y-83775253D01*
X-81287952Y-83822872D01*
X-81240333Y-83918110D01*
X-81240333Y-84203824D01*
X-81287952Y-84299062D01*
X-81335571Y-84346681D01*
X-81430809Y-84394300D01*
X-81573666Y-84394300D01*
X-80097476Y-84346681D02*
X-79954619Y-84394300D01*
X-79716523Y-84394300D01*
X-79621285Y-84346681D01*
X-79573666Y-84299062D01*
X-79526047Y-84203824D01*
X-79526047Y-84108586D01*
X-79573666Y-84013348D01*
X-79621285Y-83965729D01*
X-79716523Y-83918110D01*
X-79907000Y-83870491D01*
X-80002238Y-83822872D01*
X-80049857Y-83775253D01*
X-80097476Y-83680015D01*
X-80097476Y-83584777D01*
X-80049857Y-83489539D01*
X-80002238Y-83441920D01*
X-79907000Y-83394300D01*
X-79668904Y-83394300D01*
X-79526047Y-83441920D01*
X-79097476Y-84394300D02*
X-79097476Y-83394300D01*
X-79097476Y-83870491D02*
X-78526047Y-83870491D01*
X-78526047Y-84394300D02*
X-78526047Y-83394300D01*
X-77573666Y-84394300D02*
X-78049857Y-84394300D01*
X-78049857Y-83394300D01*
X-77240333Y-84394300D02*
X-77240333Y-83394300D01*
X-77002238Y-83394300D01*
X-76859380Y-83441920D01*
X-76764142Y-83537158D01*
X-76716523Y-83632396D01*
X-76668904Y-83822872D01*
X-76668904Y-83965729D01*
X-76716523Y-84156205D01*
X-76764142Y-84251443D01*
X-76859380Y-84346681D01*
X-77002238Y-84394300D01*
X-77240333Y-84394300D01*
%TO.C,JP2*%
X-66020379Y-82540053D02*
X-65306093Y-82540053D01*
X-65163236Y-82587672D01*
X-65067998Y-82682910D01*
X-65020379Y-82825767D01*
X-65020379Y-82921005D01*
X-65020379Y-82063862D02*
X-66020379Y-82063862D01*
X-66020379Y-81682910D01*
X-65972760Y-81587672D01*
X-65925140Y-81540053D01*
X-65829902Y-81492434D01*
X-65687045Y-81492434D01*
X-65591807Y-81540053D01*
X-65544188Y-81587672D01*
X-65496569Y-81682910D01*
X-65496569Y-82063862D01*
X-65925140Y-81111481D02*
X-65972760Y-81063862D01*
X-66020379Y-80968624D01*
X-66020379Y-80730529D01*
X-65972760Y-80635291D01*
X-65925140Y-80587672D01*
X-65829902Y-80540053D01*
X-65734664Y-80540053D01*
X-65591807Y-80587672D01*
X-65020379Y-81159100D01*
X-65020379Y-80540053D01*
X-73067015Y-84199361D02*
X-72924158Y-84246980D01*
X-72686062Y-84246980D01*
X-72590824Y-84199361D01*
X-72543205Y-84151742D01*
X-72495586Y-84056504D01*
X-72495586Y-83961266D01*
X-72543205Y-83866028D01*
X-72590824Y-83818409D01*
X-72686062Y-83770790D01*
X-72876539Y-83723171D01*
X-72971777Y-83675552D01*
X-73019396Y-83627933D01*
X-73067015Y-83532695D01*
X-73067015Y-83437457D01*
X-73019396Y-83342219D01*
X-72971777Y-83294600D01*
X-72876539Y-83246980D01*
X-72638443Y-83246980D01*
X-72495586Y-83294600D01*
X-72067015Y-84246980D02*
X-72067015Y-83246980D01*
X-72067015Y-83723171D02*
X-71495586Y-83723171D01*
X-71495586Y-84246980D02*
X-71495586Y-83246980D01*
X-70543205Y-84246980D02*
X-71019396Y-84246980D01*
X-71019396Y-83246980D01*
X-70209872Y-84246980D02*
X-70209872Y-83246980D01*
X-69971777Y-83246980D01*
X-69828920Y-83294600D01*
X-69733681Y-83389838D01*
X-69686062Y-83485076D01*
X-69638443Y-83675552D01*
X-69638443Y-83818409D01*
X-69686062Y-84008885D01*
X-69733681Y-84104123D01*
X-69828920Y-84199361D01*
X-69971777Y-84246980D01*
X-70209872Y-84246980D01*
X-69209872Y-83866028D02*
X-68447967Y-83866028D01*
X-68019396Y-84199361D02*
X-67876539Y-84246980D01*
X-67638443Y-84246980D01*
X-67543205Y-84199361D01*
X-67495586Y-84151742D01*
X-67447967Y-84056504D01*
X-67447967Y-83961266D01*
X-67495586Y-83866028D01*
X-67543205Y-83818409D01*
X-67638443Y-83770790D01*
X-67828920Y-83723171D01*
X-67924158Y-83675552D01*
X-67971777Y-83627933D01*
X-68019396Y-83532695D01*
X-68019396Y-83437457D01*
X-67971777Y-83342219D01*
X-67924158Y-83294600D01*
X-67828920Y-83246980D01*
X-67590824Y-83246980D01*
X-67447967Y-83294600D01*
X-67019396Y-84246980D02*
X-67019396Y-83246980D01*
X-67019396Y-83723171D02*
X-66447967Y-83723171D01*
X-66447967Y-84246980D02*
X-66447967Y-83246980D01*
X-65495586Y-84246980D02*
X-65971777Y-84246980D01*
X-65971777Y-83246980D01*
X-65162253Y-84246980D02*
X-65162253Y-83246980D01*
X-64924158Y-83246980D01*
X-64781300Y-83294600D01*
X-64686062Y-83389838D01*
X-64638443Y-83485076D01*
X-64590824Y-83675552D01*
X-64590824Y-83818409D01*
X-64638443Y-84008885D01*
X-64686062Y-84104123D01*
X-64781300Y-84199361D01*
X-64924158Y-84246980D01*
X-65162253Y-84246980D01*
%TO.C,J2*%
X-75255453Y-79037420D02*
X-75255453Y-79751706D01*
X-75303072Y-79894563D01*
X-75398310Y-79989801D01*
X-75541167Y-80037420D01*
X-75636405Y-80037420D01*
X-74826881Y-79132659D02*
X-74779262Y-79085040D01*
X-74684024Y-79037420D01*
X-74445929Y-79037420D01*
X-74350691Y-79085040D01*
X-74303072Y-79132659D01*
X-74255453Y-79227897D01*
X-74255453Y-79323135D01*
X-74303072Y-79465992D01*
X-74874500Y-80037420D01*
X-74255453Y-80037420D01*
%TD*%
M02*
