M48
; DRILL file {KiCad (5.1.10-1-10_14)} date Wednesday, June 16, 2021 at 11:36:27 PM
; FORMAT={-:-/ absolute / metric / decimal}
; #@! TF.CreationDate,2021-06-16T23:36:27-07:00
; #@! TF.GenerationSoftware,Kicad,Pcbnew,(5.1.10-1-10_14)
; #@! TF.FileFunction,Plated,1,2,PTH
FMAT,2
METRIC
T1C0.890
T2C1.000
T3C1.600
T4C3.200
%
G90
G05
T1
X-86.311Y-89.22
X-86.311Y-95.8
X-85.041Y-86.68
X-85.041Y-93.26
X-83.771Y-89.22
X-83.771Y-95.8
X-82.501Y-86.68
X-82.501Y-93.26
X-81.231Y-89.22
X-81.231Y-95.8
X-79.961Y-86.68
X-79.961Y-93.26
X-78.691Y-89.22
X-78.691Y-95.8
X-77.421Y-86.68
X-77.421Y-93.26
X-72.341Y-89.22
X-72.341Y-95.8
X-71.071Y-86.68
X-71.071Y-93.26
X-69.801Y-89.22
X-69.801Y-95.8
X-68.531Y-86.68
X-68.531Y-93.26
X-67.261Y-89.22
X-67.261Y-95.8
X-65.991Y-86.68
X-65.991Y-93.26
X-64.721Y-89.22
X-64.721Y-95.8
X-63.451Y-86.68
X-63.451Y-93.26
T2
X-81.646Y-81.768
X-80.462Y-75.885
X-79.106Y-81.768
X-79.077Y-73.045
X-77.692Y-75.885
X-76.307Y-73.045
X-74.922Y-75.885
X-73.537Y-73.045
X-72.152Y-75.885
X-70.767Y-73.045
X-70.343Y-81.707
X-69.382Y-75.885
X-67.803Y-81.707
T3
X-90.376Y-86.68
X-90.376Y-106.72
X-89.701Y-93.01
X-74.881Y-84.95
X-60.061Y-96.31
X-59.386Y-90.75
X-59.386Y-106.72
T4
X-87.422Y-75.585
X-62.422Y-75.585
T0
M30
