%TF.GenerationSoftware,KiCad,Pcbnew,(5.1.10-1-10_14)*%
%TF.CreationDate,2021-06-16T23:36:24-07:00*%
%TF.ProjectId,XDS-QuadAES-Studiohub,5844532d-5175-4616-9441-45532d537475,rev?*%
%TF.SameCoordinates,Original*%
%TF.FileFunction,Soldermask,Bot*%
%TF.FilePolarity,Negative*%
%FSLAX46Y46*%
G04 Gerber Fmt 4.6, Leading zero omitted, Abs format (unit mm)*
G04 Created by KiCad (PCBNEW (5.1.10-1-10_14)) date 2021-06-16 23:36:24*
%MOMM*%
%LPD*%
G01*
G04 APERTURE LIST*
%ADD10C,1.398000*%
%ADD11C,2.400000*%
%ADD12C,3.250000*%
%ADD13O,1.700000X1.700000*%
%ADD14R,1.700000X1.700000*%
%ADD15R,1.600000X1.600000*%
%ADD16C,1.600000*%
%ADD17C,4.000000*%
G04 APERTURE END LIST*
D10*
%TO.C,J1*%
X-85041159Y-93259961D03*
X-82501159Y-93259961D03*
X-79961159Y-93259961D03*
X-77421159Y-93259961D03*
X-78691159Y-95799961D03*
X-81231159Y-95799961D03*
X-83771159Y-95799961D03*
X-86311159Y-95799961D03*
D11*
X-90376159Y-106719961D03*
D10*
X-85041159Y-86679961D03*
X-82501159Y-86679961D03*
X-79961159Y-86679961D03*
X-77421159Y-86679961D03*
X-78691159Y-89219961D03*
X-81231159Y-89219961D03*
X-83771159Y-89219961D03*
X-86311159Y-89219961D03*
D11*
X-90376159Y-86679961D03*
X-89701159Y-93009961D03*
D10*
X-71071159Y-93259961D03*
X-68531159Y-93259961D03*
X-65991159Y-93259961D03*
X-63451159Y-93259961D03*
X-64721159Y-95799961D03*
X-67261159Y-95799961D03*
X-69801159Y-95799961D03*
X-72341159Y-95799961D03*
D11*
X-59386159Y-106719961D03*
D10*
X-71071159Y-86679961D03*
X-68531159Y-86679961D03*
X-65991159Y-86679961D03*
X-63451159Y-86679961D03*
X-64721159Y-89219961D03*
X-67261159Y-89219961D03*
X-69801159Y-89219961D03*
X-72341159Y-89219961D03*
D11*
X-60061159Y-96309961D03*
X-59386159Y-90749961D03*
X-74881159Y-84949961D03*
D12*
X-87581159Y-102149961D03*
X-62181159Y-102149961D03*
%TD*%
D13*
%TO.C,JP1*%
X-79105760Y-81767680D03*
D14*
X-81645760Y-81767680D03*
%TD*%
%TO.C,JP2*%
X-67802760Y-81706720D03*
D13*
X-70342760Y-81706720D03*
%TD*%
D15*
%TO.C,J2*%
X-80462120Y-75885040D03*
D16*
X-77692120Y-75885040D03*
X-74922120Y-75885040D03*
X-72152120Y-75885040D03*
X-69382120Y-75885040D03*
X-79077120Y-73045040D03*
X-76307120Y-73045040D03*
X-73537120Y-73045040D03*
X-70767120Y-73045040D03*
D17*
X-62422120Y-75585040D03*
X-87422120Y-75585040D03*
%TD*%
M02*
