%TF.GenerationSoftware,KiCad,Pcbnew,(5.1.10-1-10_14)*%
%TF.CreationDate,2021-06-16T23:36:24-07:00*%
%TF.ProjectId,XDS-QuadAES-Studiohub,5844532d-5175-4616-9441-45532d537475,rev?*%
%TF.SameCoordinates,Original*%
%TF.FileFunction,Legend,Bot*%
%TF.FilePolarity,Positive*%
%FSLAX46Y46*%
G04 Gerber Fmt 4.6, Leading zero omitted, Abs format (unit mm)*
G04 Created by KiCad (PCBNEW (5.1.10-1-10_14)) date 2021-06-16 23:36:24*
%MOMM*%
%LPD*%
G01*
G04 APERTURE LIST*
%ADD10C,0.300000*%
G04 APERTURE END LIST*
D10*
X-64037142Y-103303571D02*
X-65037142Y-104803571D01*
X-65037142Y-103303571D02*
X-64037142Y-104803571D01*
X-65608571Y-104803571D02*
X-65608571Y-103303571D01*
X-65965714Y-103303571D01*
X-66180000Y-103375000D01*
X-66322857Y-103517857D01*
X-66394285Y-103660714D01*
X-66465714Y-103946428D01*
X-66465714Y-104160714D01*
X-66394285Y-104446428D01*
X-66322857Y-104589285D01*
X-66180000Y-104732142D01*
X-65965714Y-104803571D01*
X-65608571Y-104803571D01*
X-67037142Y-104732142D02*
X-67251428Y-104803571D01*
X-67608571Y-104803571D01*
X-67751428Y-104732142D01*
X-67822857Y-104660714D01*
X-67894285Y-104517857D01*
X-67894285Y-104375000D01*
X-67822857Y-104232142D01*
X-67751428Y-104160714D01*
X-67608571Y-104089285D01*
X-67322857Y-104017857D01*
X-67180000Y-103946428D01*
X-67108571Y-103875000D01*
X-67037142Y-103732142D01*
X-67037142Y-103589285D01*
X-67108571Y-103446428D01*
X-67180000Y-103375000D01*
X-67322857Y-103303571D01*
X-67680000Y-103303571D01*
X-67894285Y-103375000D01*
X-70322857Y-103803571D02*
X-70322857Y-104803571D01*
X-69965714Y-103232142D02*
X-69608571Y-104303571D01*
X-70537142Y-104303571D01*
X-70965714Y-104803571D02*
X-71751428Y-103803571D01*
X-70965714Y-103803571D02*
X-71751428Y-104803571D01*
X-72251428Y-104375000D02*
X-72965714Y-104375000D01*
X-72108571Y-104803571D02*
X-72608571Y-103303571D01*
X-73108571Y-104803571D01*
X-73608571Y-104017857D02*
X-74108571Y-104017857D01*
X-74322857Y-104803571D02*
X-73608571Y-104803571D01*
X-73608571Y-103303571D01*
X-74322857Y-103303571D01*
X-74894285Y-104732142D02*
X-75108571Y-104803571D01*
X-75465714Y-104803571D01*
X-75608571Y-104732142D01*
X-75680000Y-104660714D01*
X-75751428Y-104517857D01*
X-75751428Y-104375000D01*
X-75680000Y-104232142D01*
X-75608571Y-104160714D01*
X-75465714Y-104089285D01*
X-75180000Y-104017857D01*
X-75037142Y-103946428D01*
X-74965714Y-103875000D01*
X-74894285Y-103732142D01*
X-74894285Y-103589285D01*
X-74965714Y-103446428D01*
X-75037142Y-103375000D01*
X-75180000Y-103303571D01*
X-75537142Y-103303571D01*
X-75751428Y-103375000D01*
X-77322857Y-103803571D02*
X-77894285Y-103803571D01*
X-77537142Y-103303571D02*
X-77537142Y-104589285D01*
X-77608571Y-104732142D01*
X-77751428Y-104803571D01*
X-77894285Y-104803571D01*
X-78608571Y-104803571D02*
X-78465714Y-104732142D01*
X-78394285Y-104660714D01*
X-78322857Y-104517857D01*
X-78322857Y-104089285D01*
X-78394285Y-103946428D01*
X-78465714Y-103875000D01*
X-78608571Y-103803571D01*
X-78822857Y-103803571D01*
X-78965714Y-103875000D01*
X-79037142Y-103946428D01*
X-79108571Y-104089285D01*
X-79108571Y-104517857D01*
X-79037142Y-104660714D01*
X-78965714Y-104732142D01*
X-78822857Y-104803571D01*
X-78608571Y-104803571D01*
X-81751428Y-104803571D02*
X-81251428Y-104089285D01*
X-80894285Y-104803571D02*
X-80894285Y-103303571D01*
X-81465714Y-103303571D01*
X-81608571Y-103375000D01*
X-81680000Y-103446428D01*
X-81751428Y-103589285D01*
X-81751428Y-103803571D01*
X-81680000Y-103946428D01*
X-81608571Y-104017857D01*
X-81465714Y-104089285D01*
X-80894285Y-104089285D01*
X-82822857Y-103303571D02*
X-82822857Y-104375000D01*
X-82751428Y-104589285D01*
X-82608571Y-104732142D01*
X-82394285Y-104803571D01*
X-82251428Y-104803571D01*
X-84180000Y-103803571D02*
X-84180000Y-104803571D01*
X-83822857Y-103232142D02*
X-83465714Y-104303571D01*
X-84394285Y-104303571D01*
X-85680000Y-103303571D02*
X-84965714Y-103303571D01*
X-84894285Y-104017857D01*
X-84965714Y-103946428D01*
X-85108571Y-103875000D01*
X-85465714Y-103875000D01*
X-85608571Y-103946428D01*
X-85680000Y-104017857D01*
X-85751428Y-104160714D01*
X-85751428Y-104517857D01*
X-85680000Y-104660714D01*
X-85608571Y-104732142D01*
X-85465714Y-104803571D01*
X-85108571Y-104803571D01*
X-84965714Y-104732142D01*
X-84894285Y-104660714D01*
X-68501428Y-107282142D02*
X-68715714Y-107353571D01*
X-69072857Y-107353571D01*
X-69215714Y-107282142D01*
X-69287142Y-107210714D01*
X-69358571Y-107067857D01*
X-69358571Y-106925000D01*
X-69287142Y-106782142D01*
X-69215714Y-106710714D01*
X-69072857Y-106639285D01*
X-68787142Y-106567857D01*
X-68644285Y-106496428D01*
X-68572857Y-106425000D01*
X-68501428Y-106282142D01*
X-68501428Y-106139285D01*
X-68572857Y-105996428D01*
X-68644285Y-105925000D01*
X-68787142Y-105853571D01*
X-69144285Y-105853571D01*
X-69358571Y-105925000D01*
X-69787142Y-106353571D02*
X-70358571Y-106353571D01*
X-70001428Y-105853571D02*
X-70001428Y-107139285D01*
X-70072857Y-107282142D01*
X-70215714Y-107353571D01*
X-70358571Y-107353571D01*
X-71430000Y-107282142D02*
X-71287142Y-107353571D01*
X-71001428Y-107353571D01*
X-70858571Y-107282142D01*
X-70787142Y-107139285D01*
X-70787142Y-106567857D01*
X-70858571Y-106425000D01*
X-71001428Y-106353571D01*
X-71287142Y-106353571D01*
X-71430000Y-106425000D01*
X-71501428Y-106567857D01*
X-71501428Y-106710714D01*
X-70787142Y-106853571D01*
X-72001428Y-106353571D02*
X-72358571Y-107353571D01*
X-72715714Y-106353571D01*
X-73858571Y-107282142D02*
X-73715714Y-107353571D01*
X-73430000Y-107353571D01*
X-73287142Y-107282142D01*
X-73215714Y-107139285D01*
X-73215714Y-106567857D01*
X-73287142Y-106425000D01*
X-73430000Y-106353571D01*
X-73715714Y-106353571D01*
X-73858571Y-106425000D01*
X-73930000Y-106567857D01*
X-73930000Y-106710714D01*
X-73215714Y-106853571D01*
X-76572857Y-107353571D02*
X-76072857Y-106639285D01*
X-75715714Y-107353571D02*
X-75715714Y-105853571D01*
X-76287142Y-105853571D01*
X-76430000Y-105925000D01*
X-76501428Y-105996428D01*
X-76572857Y-106139285D01*
X-76572857Y-106353571D01*
X-76501428Y-106496428D01*
X-76430000Y-106567857D01*
X-76287142Y-106639285D01*
X-75715714Y-106639285D01*
X-77858571Y-106353571D02*
X-77858571Y-107353571D01*
X-77215714Y-106353571D02*
X-77215714Y-107139285D01*
X-77287142Y-107282142D01*
X-77430000Y-107353571D01*
X-77644285Y-107353571D01*
X-77787142Y-107282142D01*
X-77858571Y-107210714D01*
X-78572857Y-107353571D02*
X-78572857Y-105853571D01*
X-78572857Y-106425000D02*
X-78715714Y-106353571D01*
X-79001428Y-106353571D01*
X-79144285Y-106425000D01*
X-79215714Y-106496428D01*
X-79287142Y-106639285D01*
X-79287142Y-107067857D01*
X-79215714Y-107210714D01*
X-79144285Y-107282142D01*
X-79001428Y-107353571D01*
X-78715714Y-107353571D01*
X-78572857Y-107282142D01*
X-79930000Y-107353571D02*
X-79930000Y-106353571D01*
X-79930000Y-105853571D02*
X-79858571Y-105925000D01*
X-79930000Y-105996428D01*
X-80001428Y-105925000D01*
X-79930000Y-105853571D01*
X-79930000Y-105996428D01*
X-80644285Y-106353571D02*
X-80644285Y-107353571D01*
X-80644285Y-106496428D02*
X-80715714Y-106425000D01*
X-80858571Y-106353571D01*
X-81072857Y-106353571D01*
X-81215714Y-106425000D01*
X-81287142Y-106567857D01*
X-81287142Y-107353571D01*
X-59751428Y-109832142D02*
X-59894285Y-109903571D01*
X-60180000Y-109903571D01*
X-60322857Y-109832142D01*
X-60394285Y-109689285D01*
X-60394285Y-109617857D01*
X-60322857Y-109475000D01*
X-60180000Y-109403571D01*
X-59965714Y-109403571D01*
X-59822857Y-109332142D01*
X-59751428Y-109189285D01*
X-59751428Y-109117857D01*
X-59822857Y-108975000D01*
X-59965714Y-108903571D01*
X-60180000Y-108903571D01*
X-60322857Y-108975000D01*
X-61608571Y-109832142D02*
X-61465714Y-109903571D01*
X-61180000Y-109903571D01*
X-61037142Y-109832142D01*
X-60965714Y-109689285D01*
X-60965714Y-109117857D01*
X-61037142Y-108975000D01*
X-61180000Y-108903571D01*
X-61465714Y-108903571D01*
X-61608571Y-108975000D01*
X-61680000Y-109117857D01*
X-61680000Y-109260714D01*
X-60965714Y-109403571D01*
X-62322857Y-109903571D02*
X-62322857Y-108903571D01*
X-62322857Y-109189285D02*
X-62394285Y-109046428D01*
X-62465714Y-108975000D01*
X-62608571Y-108903571D01*
X-62751428Y-108903571D01*
X-64180000Y-109189285D02*
X-64108571Y-109117857D01*
X-63965714Y-109046428D01*
X-63822857Y-109046428D01*
X-63680000Y-109117857D01*
X-63608571Y-109189285D01*
X-63537142Y-109332142D01*
X-63537142Y-109475000D01*
X-63608571Y-109617857D01*
X-63680000Y-109689285D01*
X-63822857Y-109760714D01*
X-63965714Y-109760714D01*
X-64108571Y-109689285D01*
X-64180000Y-109617857D01*
X-64180000Y-109046428D02*
X-64180000Y-109617857D01*
X-64251428Y-109689285D01*
X-64322857Y-109689285D01*
X-64465714Y-109617857D01*
X-64537142Y-109475000D01*
X-64537142Y-109117857D01*
X-64394285Y-108903571D01*
X-64180000Y-108760714D01*
X-63894285Y-108689285D01*
X-63608571Y-108760714D01*
X-63394285Y-108903571D01*
X-63251428Y-109117857D01*
X-63180000Y-109403571D01*
X-63251428Y-109689285D01*
X-63394285Y-109903571D01*
X-63608571Y-110046428D01*
X-63894285Y-110117857D01*
X-64180000Y-110046428D01*
X-64394285Y-109903571D01*
X-65180000Y-109903571D02*
X-65180000Y-108903571D01*
X-65180000Y-109189285D02*
X-65251428Y-109046428D01*
X-65322857Y-108975000D01*
X-65465714Y-108903571D01*
X-65608571Y-108903571D01*
X-66751428Y-108903571D02*
X-66751428Y-109903571D01*
X-66108571Y-108903571D02*
X-66108571Y-109689285D01*
X-66180000Y-109832142D01*
X-66322857Y-109903571D01*
X-66537142Y-109903571D01*
X-66680000Y-109832142D01*
X-66751428Y-109760714D01*
X-67465714Y-109903571D02*
X-67465714Y-108403571D01*
X-67465714Y-108975000D02*
X-67608571Y-108903571D01*
X-67894285Y-108903571D01*
X-68037142Y-108975000D01*
X-68108571Y-109046428D01*
X-68180000Y-109189285D01*
X-68180000Y-109617857D01*
X-68108571Y-109760714D01*
X-68037142Y-109832142D01*
X-67894285Y-109903571D01*
X-67608571Y-109903571D01*
X-67465714Y-109832142D01*
X-68822857Y-109903571D02*
X-68822857Y-108903571D01*
X-68822857Y-108403571D02*
X-68751428Y-108475000D01*
X-68822857Y-108546428D01*
X-68894285Y-108475000D01*
X-68822857Y-108403571D01*
X-68822857Y-108546428D01*
X-69537142Y-108903571D02*
X-69537142Y-109903571D01*
X-69537142Y-109046428D02*
X-69608571Y-108975000D01*
X-69751428Y-108903571D01*
X-69965714Y-108903571D01*
X-70108571Y-108975000D01*
X-70180000Y-109117857D01*
X-70180000Y-109903571D01*
X-70894285Y-109903571D02*
X-70894285Y-108403571D01*
X-70894285Y-108975000D02*
X-71037142Y-108903571D01*
X-71322857Y-108903571D01*
X-71465714Y-108975000D01*
X-71537142Y-109046428D01*
X-71608571Y-109189285D01*
X-71608571Y-109617857D01*
X-71537142Y-109760714D01*
X-71465714Y-109832142D01*
X-71322857Y-109903571D01*
X-71037142Y-109903571D01*
X-70894285Y-109832142D01*
X-72251428Y-109903571D02*
X-72251428Y-108903571D01*
X-72251428Y-109189285D02*
X-72322857Y-109046428D01*
X-72394285Y-108975000D01*
X-72537142Y-108903571D01*
X-72680000Y-108903571D01*
X-73394285Y-109903571D02*
X-73251428Y-109832142D01*
X-73180000Y-109760714D01*
X-73108571Y-109617857D01*
X-73108571Y-109189285D01*
X-73180000Y-109046428D01*
X-73251428Y-108975000D01*
X-73394285Y-108903571D01*
X-73608571Y-108903571D01*
X-73751428Y-108975000D01*
X-73822857Y-109046428D01*
X-73894285Y-109189285D01*
X-73894285Y-109617857D01*
X-73822857Y-109760714D01*
X-73751428Y-109832142D01*
X-73608571Y-109903571D01*
X-73394285Y-109903571D01*
X-75180000Y-109903571D02*
X-75180000Y-109117857D01*
X-75108571Y-108975000D01*
X-74965714Y-108903571D01*
X-74680000Y-108903571D01*
X-74537142Y-108975000D01*
X-75180000Y-109832142D02*
X-75037142Y-109903571D01*
X-74680000Y-109903571D01*
X-74537142Y-109832142D01*
X-74465714Y-109689285D01*
X-74465714Y-109546428D01*
X-74537142Y-109403571D01*
X-74680000Y-109332142D01*
X-75037142Y-109332142D01*
X-75180000Y-109260714D01*
X-76537142Y-109903571D02*
X-76537142Y-108403571D01*
X-76537142Y-109832142D02*
X-76394285Y-109903571D01*
X-76108571Y-109903571D01*
X-75965714Y-109832142D01*
X-75894285Y-109760714D01*
X-75822857Y-109617857D01*
X-75822857Y-109189285D01*
X-75894285Y-109046428D01*
X-75965714Y-108975000D01*
X-76108571Y-108903571D01*
X-76394285Y-108903571D01*
X-76537142Y-108975000D01*
X-77894285Y-109832142D02*
X-77751428Y-109903571D01*
X-77465714Y-109903571D01*
X-77322857Y-109832142D01*
X-77251428Y-109760714D01*
X-77180000Y-109617857D01*
X-77180000Y-109189285D01*
X-77251428Y-109046428D01*
X-77322857Y-108975000D01*
X-77465714Y-108903571D01*
X-77751428Y-108903571D01*
X-77894285Y-108975000D01*
X-79180000Y-109903571D02*
X-79180000Y-109117857D01*
X-79108571Y-108975000D01*
X-78965714Y-108903571D01*
X-78680000Y-108903571D01*
X-78537142Y-108975000D01*
X-79180000Y-109832142D02*
X-79037142Y-109903571D01*
X-78680000Y-109903571D01*
X-78537142Y-109832142D01*
X-78465714Y-109689285D01*
X-78465714Y-109546428D01*
X-78537142Y-109403571D01*
X-78680000Y-109332142D01*
X-79037142Y-109332142D01*
X-79180000Y-109260714D01*
X-79822857Y-109832142D02*
X-79965714Y-109903571D01*
X-80251428Y-109903571D01*
X-80394285Y-109832142D01*
X-80465714Y-109689285D01*
X-80465714Y-109617857D01*
X-80394285Y-109475000D01*
X-80251428Y-109403571D01*
X-80037142Y-109403571D01*
X-79894285Y-109332142D01*
X-79822857Y-109189285D01*
X-79822857Y-109117857D01*
X-79894285Y-108975000D01*
X-80037142Y-108903571D01*
X-80251428Y-108903571D01*
X-80394285Y-108975000D01*
X-80894285Y-108903571D02*
X-81465714Y-108903571D01*
X-81108571Y-108403571D02*
X-81108571Y-109689285D01*
X-81180000Y-109832142D01*
X-81322857Y-109903571D01*
X-81465714Y-109903571D01*
X-81965714Y-109903571D02*
X-81965714Y-108903571D01*
X-81965714Y-108403571D02*
X-81894285Y-108475000D01*
X-81965714Y-108546428D01*
X-82037142Y-108475000D01*
X-81965714Y-108403571D01*
X-81965714Y-108546428D01*
X-82680000Y-108903571D02*
X-82680000Y-109903571D01*
X-82680000Y-109046428D02*
X-82751428Y-108975000D01*
X-82894285Y-108903571D01*
X-83108571Y-108903571D01*
X-83251428Y-108975000D01*
X-83322857Y-109117857D01*
X-83322857Y-109903571D01*
X-84680000Y-108903571D02*
X-84680000Y-110117857D01*
X-84608571Y-110260714D01*
X-84537142Y-110332142D01*
X-84394285Y-110403571D01*
X-84180000Y-110403571D01*
X-84037142Y-110332142D01*
X-84680000Y-109832142D02*
X-84537142Y-109903571D01*
X-84251428Y-109903571D01*
X-84108571Y-109832142D01*
X-84037142Y-109760714D01*
X-83965714Y-109617857D01*
X-83965714Y-109189285D01*
X-84037142Y-109046428D01*
X-84108571Y-108975000D01*
X-84251428Y-108903571D01*
X-84537142Y-108903571D01*
X-84680000Y-108975000D01*
X-85394285Y-109760714D02*
X-85465714Y-109832142D01*
X-85394285Y-109903571D01*
X-85322857Y-109832142D01*
X-85394285Y-109760714D01*
X-85394285Y-109903571D01*
X-86751428Y-109832142D02*
X-86608571Y-109903571D01*
X-86322857Y-109903571D01*
X-86180000Y-109832142D01*
X-86108571Y-109760714D01*
X-86037142Y-109617857D01*
X-86037142Y-109189285D01*
X-86108571Y-109046428D01*
X-86180000Y-108975000D01*
X-86322857Y-108903571D01*
X-86608571Y-108903571D01*
X-86751428Y-108975000D01*
X-87608571Y-109903571D02*
X-87465714Y-109832142D01*
X-87394285Y-109760714D01*
X-87322857Y-109617857D01*
X-87322857Y-109189285D01*
X-87394285Y-109046428D01*
X-87465714Y-108975000D01*
X-87608571Y-108903571D01*
X-87822857Y-108903571D01*
X-87965714Y-108975000D01*
X-88037142Y-109046428D01*
X-88108571Y-109189285D01*
X-88108571Y-109617857D01*
X-88037142Y-109760714D01*
X-87965714Y-109832142D01*
X-87822857Y-109903571D01*
X-87608571Y-109903571D01*
X-88751428Y-109903571D02*
X-88751428Y-108903571D01*
X-88751428Y-109046428D02*
X-88822857Y-108975000D01*
X-88965714Y-108903571D01*
X-89180000Y-108903571D01*
X-89322857Y-108975000D01*
X-89394285Y-109117857D01*
X-89394285Y-109903571D01*
X-89394285Y-109117857D02*
X-89465714Y-108975000D01*
X-89608571Y-108903571D01*
X-89822857Y-108903571D01*
X-89965714Y-108975000D01*
X-90037142Y-109117857D01*
X-90037142Y-109903571D01*
X-71572857Y-110953571D02*
X-71287142Y-110953571D01*
X-71144285Y-111025000D01*
X-71072857Y-111096428D01*
X-70930000Y-111310714D01*
X-70858571Y-111596428D01*
X-70858571Y-112167857D01*
X-70930000Y-112310714D01*
X-71001428Y-112382142D01*
X-71144285Y-112453571D01*
X-71430000Y-112453571D01*
X-71572857Y-112382142D01*
X-71644285Y-112310714D01*
X-71715714Y-112167857D01*
X-71715714Y-111810714D01*
X-71644285Y-111667857D01*
X-71572857Y-111596428D01*
X-71430000Y-111525000D01*
X-71144285Y-111525000D01*
X-71001428Y-111596428D01*
X-70930000Y-111667857D01*
X-70858571Y-111810714D01*
X-73430000Y-110882142D02*
X-72144285Y-112810714D01*
X-73858571Y-111096428D02*
X-73930000Y-111025000D01*
X-74072857Y-110953571D01*
X-74430000Y-110953571D01*
X-74572857Y-111025000D01*
X-74644285Y-111096428D01*
X-74715714Y-111239285D01*
X-74715714Y-111382142D01*
X-74644285Y-111596428D01*
X-73787142Y-112453571D01*
X-74715714Y-112453571D01*
X-75644285Y-110953571D02*
X-75787142Y-110953571D01*
X-75929999Y-111025000D01*
X-76001428Y-111096428D01*
X-76072857Y-111239285D01*
X-76144285Y-111525000D01*
X-76144285Y-111882142D01*
X-76072857Y-112167857D01*
X-76001428Y-112310714D01*
X-75929999Y-112382142D01*
X-75787142Y-112453571D01*
X-75644285Y-112453571D01*
X-75501428Y-112382142D01*
X-75429999Y-112310714D01*
X-75358571Y-112167857D01*
X-75287142Y-111882142D01*
X-75287142Y-111525000D01*
X-75358571Y-111239285D01*
X-75429999Y-111096428D01*
X-75501428Y-111025000D01*
X-75644285Y-110953571D01*
X-76715714Y-111096428D02*
X-76787142Y-111025000D01*
X-76929999Y-110953571D01*
X-77287142Y-110953571D01*
X-77429999Y-111025000D01*
X-77501428Y-111096428D01*
X-77572857Y-111239285D01*
X-77572857Y-111382142D01*
X-77501428Y-111596428D01*
X-76644285Y-112453571D01*
X-77572857Y-112453571D01*
X-79001428Y-112453571D02*
X-78144285Y-112453571D01*
X-78572857Y-112453571D02*
X-78572857Y-110953571D01*
X-78429999Y-111167857D01*
X-78287142Y-111310714D01*
X-78144285Y-111382142D01*
M02*
