%TF.GenerationSoftware,KiCad,Pcbnew,(5.1.10-1-10_14)*%
%TF.CreationDate,2021-06-16T23:36:24-07:00*%
%TF.ProjectId,XDS-QuadAES-Studiohub,5844532d-5175-4616-9441-45532d537475,rev?*%
%TF.SameCoordinates,Original*%
%TF.FileFunction,Copper,L1,Top*%
%TF.FilePolarity,Positive*%
%FSLAX46Y46*%
G04 Gerber Fmt 4.6, Leading zero omitted, Abs format (unit mm)*
G04 Created by KiCad (PCBNEW (5.1.10-1-10_14)) date 2021-06-16 23:36:24*
%MOMM*%
%LPD*%
G01*
G04 APERTURE LIST*
%TA.AperFunction,ComponentPad*%
%ADD10C,1.398000*%
%TD*%
%TA.AperFunction,ComponentPad*%
%ADD11C,2.400000*%
%TD*%
%TA.AperFunction,ComponentPad*%
%ADD12O,1.700000X1.700000*%
%TD*%
%TA.AperFunction,ComponentPad*%
%ADD13R,1.700000X1.700000*%
%TD*%
%TA.AperFunction,ComponentPad*%
%ADD14R,1.600000X1.600000*%
%TD*%
%TA.AperFunction,ComponentPad*%
%ADD15C,1.600000*%
%TD*%
%TA.AperFunction,ComponentPad*%
%ADD16C,4.000000*%
%TD*%
%TA.AperFunction,Conductor*%
%ADD17C,0.200000*%
%TD*%
%TA.AperFunction,Conductor*%
%ADD18C,0.254000*%
%TD*%
%TA.AperFunction,Conductor*%
%ADD19C,0.100000*%
%TD*%
G04 APERTURE END LIST*
D10*
%TO.P,J1,D2*%
%TO.N,Net-(J1-PadD2)*%
X-85041159Y-93259961D03*
%TO.P,J1,D4*%
%TO.N,N/C*%
X-82501159Y-93259961D03*
%TO.P,J1,D6*%
X-79961159Y-93259961D03*
%TO.P,J1,D8*%
X-77421159Y-93259961D03*
%TO.P,J1,D7*%
X-78691159Y-95799961D03*
%TO.P,J1,D5*%
X-81231159Y-95799961D03*
%TO.P,J1,D3*%
X-83771159Y-95799961D03*
%TO.P,J1,D1*%
%TO.N,Net-(J1-PadD1)*%
X-86311159Y-95799961D03*
D11*
%TO.P,J1,S1*%
%TO.N,Net-(J1-PadS1)*%
X-90376159Y-106719961D03*
D10*
%TO.P,J1,A7*%
%TO.N,N/C*%
X-85041159Y-86679961D03*
%TO.P,J1,A5*%
X-82501159Y-86679961D03*
%TO.P,J1,A3*%
X-79961159Y-86679961D03*
%TO.P,J1,A1*%
%TO.N,Net-(J1-PadA1)*%
X-77421159Y-86679961D03*
%TO.P,J1,A2*%
%TO.N,Net-(J1-PadA2)*%
X-78691159Y-89219961D03*
%TO.P,J1,A4*%
%TO.N,N/C*%
X-81231159Y-89219961D03*
%TO.P,J1,A6*%
X-83771159Y-89219961D03*
%TO.P,J1,A8*%
X-86311159Y-89219961D03*
D11*
%TO.P,J1,S3*%
%TO.N,Net-(J1-PadS1)*%
X-90376159Y-86679961D03*
%TO.P,J1,S2*%
X-89701159Y-93009961D03*
D10*
%TO.P,J1,C2*%
%TO.N,Net-(J1-PadC2)*%
X-71071159Y-93259961D03*
%TO.P,J1,C4*%
%TO.N,N/C*%
X-68531159Y-93259961D03*
%TO.P,J1,C6*%
X-65991159Y-93259961D03*
%TO.P,J1,C8*%
X-63451159Y-93259961D03*
%TO.P,J1,C7*%
X-64721159Y-95799961D03*
%TO.P,J1,C5*%
X-67261159Y-95799961D03*
%TO.P,J1,C3*%
X-69801159Y-95799961D03*
%TO.P,J1,C1*%
%TO.N,Net-(J1-PadC1)*%
X-72341159Y-95799961D03*
D11*
%TO.P,J1,S7*%
%TO.N,Net-(J1-PadS1)*%
X-59386159Y-106719961D03*
D10*
%TO.P,J1,B7*%
%TO.N,N/C*%
X-71071159Y-86679961D03*
%TO.P,J1,B5*%
X-68531159Y-86679961D03*
%TO.P,J1,B3*%
X-65991159Y-86679961D03*
%TO.P,J1,B1*%
%TO.N,Net-(J1-PadB1)*%
X-63451159Y-86679961D03*
%TO.P,J1,B2*%
%TO.N,Net-(J1-PadB2)*%
X-64721159Y-89219961D03*
%TO.P,J1,B4*%
%TO.N,N/C*%
X-67261159Y-89219961D03*
%TO.P,J1,B6*%
X-69801159Y-89219961D03*
%TO.P,J1,B8*%
X-72341159Y-89219961D03*
D11*
%TO.P,J1,S6*%
%TO.N,Net-(J1-PadS1)*%
X-60061159Y-96309961D03*
%TO.P,J1,S5*%
X-59386159Y-90749961D03*
%TO.P,J1,S4*%
X-74881159Y-84949961D03*
%TD*%
D12*
%TO.P,JP1,2*%
%TO.N,Net-(J2-Pad3)*%
X-79105760Y-81767680D03*
D13*
%TO.P,JP1,1*%
%TO.N,Net-(J1-PadS1)*%
X-81645760Y-81767680D03*
%TD*%
%TO.P,JP2,1*%
%TO.N,Net-(J1-PadS1)*%
X-67802760Y-81706720D03*
D12*
%TO.P,JP2,2*%
%TO.N,Net-(J2-Pad0)*%
X-70342760Y-81706720D03*
%TD*%
D14*
%TO.P,J2,1*%
%TO.N,Net-(J1-PadD1)*%
X-80462120Y-75885040D03*
D15*
%TO.P,J2,2*%
%TO.N,Net-(J1-PadA1)*%
X-77692120Y-75885040D03*
%TO.P,J2,3*%
%TO.N,Net-(J2-Pad3)*%
X-74922120Y-75885040D03*
%TO.P,J2,4*%
%TO.N,Net-(J1-PadC1)*%
X-72152120Y-75885040D03*
%TO.P,J2,5*%
%TO.N,Net-(J1-PadB1)*%
X-69382120Y-75885040D03*
%TO.P,J2,6*%
%TO.N,Net-(J1-PadD2)*%
X-79077120Y-73045040D03*
%TO.P,J2,7*%
%TO.N,Net-(J1-PadA2)*%
X-76307120Y-73045040D03*
%TO.P,J2,8*%
%TO.N,Net-(J1-PadC2)*%
X-73537120Y-73045040D03*
%TO.P,J2,9*%
%TO.N,Net-(J1-PadB2)*%
X-70767120Y-73045040D03*
D16*
%TO.P,J2,0*%
%TO.N,Net-(J2-Pad0)*%
X-62422120Y-75585040D03*
X-87422120Y-75585040D03*
%TD*%
D17*
%TO.N,Net-(J1-PadA1)*%
X-76829920Y-76747240D02*
X-77692120Y-75885040D01*
X-76829920Y-86088722D02*
X-76829920Y-76747240D01*
X-77421159Y-86679961D02*
X-76829920Y-86088722D01*
%TO.N,Net-(J1-PadA2)*%
X-76520040Y-88660844D02*
X-76520040Y-73257960D01*
X-77079157Y-89219961D02*
X-76520040Y-88660844D01*
X-76520040Y-73257960D02*
X-76307120Y-73045040D01*
X-78691159Y-89219961D02*
X-77079157Y-89219961D01*
%TO.N,Net-(J1-PadB1)*%
X-68371720Y-75885040D02*
X-69382120Y-75885040D01*
X-62834520Y-81422240D02*
X-68371720Y-75885040D01*
X-63451159Y-86679961D02*
X-62834520Y-86063322D01*
X-62834520Y-86063322D02*
X-62834520Y-81422240D01*
%TO.N,Net-(J1-PadB2)*%
X-64721159Y-89219961D02*
X-63732624Y-89219961D01*
X-63732624Y-89219961D02*
X-62534509Y-88021846D01*
X-62534509Y-88021846D02*
X-62534509Y-81277651D01*
X-62534509Y-81277651D02*
X-70767120Y-73045040D01*
%TO.N,Net-(J2-Pad3)*%
X-74922120Y-72950038D02*
X-74922120Y-75885040D01*
X-75827119Y-72045039D02*
X-74922120Y-72950038D01*
X-76787121Y-72045039D02*
X-75827119Y-72045039D01*
X-79105760Y-81767680D02*
X-78867000Y-81528920D01*
X-77307121Y-72755043D02*
X-77307121Y-72565039D01*
X-77307121Y-72565039D02*
X-76787121Y-72045039D01*
X-78867000Y-74314922D02*
X-77307121Y-72755043D01*
X-78867000Y-81528920D02*
X-78867000Y-74314922D01*
%TD*%
D18*
%TO.N,Net-(J2-Pad0)*%
X-58445000Y-89171888D02*
X-58516960Y-89123805D01*
X-58850909Y-88985479D01*
X-59205427Y-88914961D01*
X-59566891Y-88914961D01*
X-59921409Y-88985479D01*
X-60255358Y-89123805D01*
X-60555903Y-89324623D01*
X-60811497Y-89580217D01*
X-61012315Y-89880762D01*
X-61150641Y-90214711D01*
X-61221159Y-90569229D01*
X-61221159Y-90930693D01*
X-61150641Y-91285211D01*
X-61012315Y-91619160D01*
X-60811497Y-91919705D01*
X-60555903Y-92175299D01*
X-60255358Y-92376117D01*
X-59921409Y-92514443D01*
X-59566891Y-92584961D01*
X-59205427Y-92584961D01*
X-58850909Y-92514443D01*
X-58516960Y-92376117D01*
X-58445000Y-92328035D01*
X-58445000Y-95425801D01*
X-58635821Y-95140217D01*
X-58891415Y-94884623D01*
X-59191960Y-94683805D01*
X-59525909Y-94545479D01*
X-59880427Y-94474961D01*
X-60241891Y-94474961D01*
X-60596409Y-94545479D01*
X-60930358Y-94683805D01*
X-61230903Y-94884623D01*
X-61486497Y-95140217D01*
X-61687315Y-95440762D01*
X-61825641Y-95774711D01*
X-61896159Y-96129229D01*
X-61896159Y-96490693D01*
X-61825641Y-96845211D01*
X-61687315Y-97179160D01*
X-61486497Y-97479705D01*
X-61230903Y-97735299D01*
X-60930358Y-97936117D01*
X-60596409Y-98074443D01*
X-60241891Y-98144961D01*
X-59880427Y-98144961D01*
X-59525909Y-98074443D01*
X-59191960Y-97936117D01*
X-58891415Y-97735299D01*
X-58635821Y-97479705D01*
X-58445000Y-97194121D01*
X-58445000Y-105141887D01*
X-58516960Y-105093805D01*
X-58850909Y-104955479D01*
X-59205427Y-104884961D01*
X-59566891Y-104884961D01*
X-59921409Y-104955479D01*
X-60255358Y-105093805D01*
X-60555903Y-105294623D01*
X-60811497Y-105550217D01*
X-61012315Y-105850762D01*
X-61150641Y-106184711D01*
X-61221159Y-106539229D01*
X-61221159Y-106900693D01*
X-61150641Y-107255211D01*
X-61012315Y-107589160D01*
X-60811497Y-107889705D01*
X-60555903Y-108145299D01*
X-60255358Y-108346117D01*
X-59921409Y-108484443D01*
X-59566891Y-108554961D01*
X-59205427Y-108554961D01*
X-58850909Y-108484443D01*
X-58516960Y-108346117D01*
X-58445000Y-108298035D01*
X-58445000Y-108298582D01*
X-58444999Y-112751000D01*
X-91288000Y-112751000D01*
X-91288000Y-108317624D01*
X-91245358Y-108346117D01*
X-90911409Y-108484443D01*
X-90556891Y-108554961D01*
X-90195427Y-108554961D01*
X-89840909Y-108484443D01*
X-89506960Y-108346117D01*
X-89206415Y-108145299D01*
X-88950821Y-107889705D01*
X-88750003Y-107589160D01*
X-88611677Y-107255211D01*
X-88541159Y-106900693D01*
X-88541159Y-106539229D01*
X-88611677Y-106184711D01*
X-88750003Y-105850762D01*
X-88950821Y-105550217D01*
X-89206415Y-105294623D01*
X-89506960Y-105093805D01*
X-89840909Y-104955479D01*
X-90195427Y-104884961D01*
X-90556891Y-104884961D01*
X-90911409Y-104955479D01*
X-91245358Y-105093805D01*
X-91288000Y-105122298D01*
X-91288000Y-101927370D01*
X-89841159Y-101927370D01*
X-89841159Y-102372552D01*
X-89754308Y-102809179D01*
X-89583945Y-103220472D01*
X-89336615Y-103590627D01*
X-89021825Y-103905417D01*
X-88651670Y-104152747D01*
X-88240377Y-104323110D01*
X-87803750Y-104409961D01*
X-87358568Y-104409961D01*
X-86921941Y-104323110D01*
X-86510648Y-104152747D01*
X-86140493Y-103905417D01*
X-85825703Y-103590627D01*
X-85578373Y-103220472D01*
X-85408010Y-102809179D01*
X-85321159Y-102372552D01*
X-85321159Y-101927370D01*
X-64441159Y-101927370D01*
X-64441159Y-102372552D01*
X-64354308Y-102809179D01*
X-64183945Y-103220472D01*
X-63936615Y-103590627D01*
X-63621825Y-103905417D01*
X-63251670Y-104152747D01*
X-62840377Y-104323110D01*
X-62403750Y-104409961D01*
X-61958568Y-104409961D01*
X-61521941Y-104323110D01*
X-61110648Y-104152747D01*
X-60740493Y-103905417D01*
X-60425703Y-103590627D01*
X-60178373Y-103220472D01*
X-60008010Y-102809179D01*
X-59921159Y-102372552D01*
X-59921159Y-101927370D01*
X-60008010Y-101490743D01*
X-60178373Y-101079450D01*
X-60425703Y-100709295D01*
X-60740493Y-100394505D01*
X-61110648Y-100147175D01*
X-61521941Y-99976812D01*
X-61958568Y-99889961D01*
X-62403750Y-99889961D01*
X-62840377Y-99976812D01*
X-63251670Y-100147175D01*
X-63621825Y-100394505D01*
X-63936615Y-100709295D01*
X-64183945Y-101079450D01*
X-64354308Y-101490743D01*
X-64441159Y-101927370D01*
X-85321159Y-101927370D01*
X-85408010Y-101490743D01*
X-85578373Y-101079450D01*
X-85825703Y-100709295D01*
X-86140493Y-100394505D01*
X-86510648Y-100147175D01*
X-86921941Y-99976812D01*
X-87358568Y-99889961D01*
X-87803750Y-99889961D01*
X-88240377Y-99976812D01*
X-88651670Y-100147175D01*
X-89021825Y-100394505D01*
X-89336615Y-100709295D01*
X-89583945Y-101079450D01*
X-89754308Y-101490743D01*
X-89841159Y-101927370D01*
X-91288000Y-101927370D01*
X-91288000Y-95668573D01*
X-87645159Y-95668573D01*
X-87645159Y-95931349D01*
X-87593894Y-96189075D01*
X-87493335Y-96431847D01*
X-87347345Y-96650337D01*
X-87161535Y-96836147D01*
X-86943045Y-96982137D01*
X-86700273Y-97082696D01*
X-86442547Y-97133961D01*
X-86179771Y-97133961D01*
X-85922045Y-97082696D01*
X-85679273Y-96982137D01*
X-85460783Y-96836147D01*
X-85274973Y-96650337D01*
X-85128983Y-96431847D01*
X-85041159Y-96219820D01*
X-84953335Y-96431847D01*
X-84807345Y-96650337D01*
X-84621535Y-96836147D01*
X-84403045Y-96982137D01*
X-84160273Y-97082696D01*
X-83902547Y-97133961D01*
X-83639771Y-97133961D01*
X-83382045Y-97082696D01*
X-83139273Y-96982137D01*
X-82920783Y-96836147D01*
X-82734973Y-96650337D01*
X-82588983Y-96431847D01*
X-82501159Y-96219820D01*
X-82413335Y-96431847D01*
X-82267345Y-96650337D01*
X-82081535Y-96836147D01*
X-81863045Y-96982137D01*
X-81620273Y-97082696D01*
X-81362547Y-97133961D01*
X-81099771Y-97133961D01*
X-80842045Y-97082696D01*
X-80599273Y-96982137D01*
X-80380783Y-96836147D01*
X-80194973Y-96650337D01*
X-80048983Y-96431847D01*
X-79961159Y-96219820D01*
X-79873335Y-96431847D01*
X-79727345Y-96650337D01*
X-79541535Y-96836147D01*
X-79323045Y-96982137D01*
X-79080273Y-97082696D01*
X-78822547Y-97133961D01*
X-78559771Y-97133961D01*
X-78302045Y-97082696D01*
X-78059273Y-96982137D01*
X-77840783Y-96836147D01*
X-77654973Y-96650337D01*
X-77508983Y-96431847D01*
X-77408424Y-96189075D01*
X-77357159Y-95931349D01*
X-77357159Y-95668573D01*
X-73675159Y-95668573D01*
X-73675159Y-95931349D01*
X-73623894Y-96189075D01*
X-73523335Y-96431847D01*
X-73377345Y-96650337D01*
X-73191535Y-96836147D01*
X-72973045Y-96982137D01*
X-72730273Y-97082696D01*
X-72472547Y-97133961D01*
X-72209771Y-97133961D01*
X-71952045Y-97082696D01*
X-71709273Y-96982137D01*
X-71490783Y-96836147D01*
X-71304973Y-96650337D01*
X-71158983Y-96431847D01*
X-71071159Y-96219820D01*
X-70983335Y-96431847D01*
X-70837345Y-96650337D01*
X-70651535Y-96836147D01*
X-70433045Y-96982137D01*
X-70190273Y-97082696D01*
X-69932547Y-97133961D01*
X-69669771Y-97133961D01*
X-69412045Y-97082696D01*
X-69169273Y-96982137D01*
X-68950783Y-96836147D01*
X-68764973Y-96650337D01*
X-68618983Y-96431847D01*
X-68531159Y-96219820D01*
X-68443335Y-96431847D01*
X-68297345Y-96650337D01*
X-68111535Y-96836147D01*
X-67893045Y-96982137D01*
X-67650273Y-97082696D01*
X-67392547Y-97133961D01*
X-67129771Y-97133961D01*
X-66872045Y-97082696D01*
X-66629273Y-96982137D01*
X-66410783Y-96836147D01*
X-66224973Y-96650337D01*
X-66078983Y-96431847D01*
X-65991159Y-96219820D01*
X-65903335Y-96431847D01*
X-65757345Y-96650337D01*
X-65571535Y-96836147D01*
X-65353045Y-96982137D01*
X-65110273Y-97082696D01*
X-64852547Y-97133961D01*
X-64589771Y-97133961D01*
X-64332045Y-97082696D01*
X-64089273Y-96982137D01*
X-63870783Y-96836147D01*
X-63684973Y-96650337D01*
X-63538983Y-96431847D01*
X-63438424Y-96189075D01*
X-63387159Y-95931349D01*
X-63387159Y-95668573D01*
X-63438424Y-95410847D01*
X-63538983Y-95168075D01*
X-63684973Y-94949585D01*
X-63870783Y-94763775D01*
X-64089273Y-94617785D01*
X-64332045Y-94517226D01*
X-64589771Y-94465961D01*
X-64852547Y-94465961D01*
X-65110273Y-94517226D01*
X-65353045Y-94617785D01*
X-65571535Y-94763775D01*
X-65757345Y-94949585D01*
X-65903335Y-95168075D01*
X-65991159Y-95380102D01*
X-66078983Y-95168075D01*
X-66224973Y-94949585D01*
X-66410783Y-94763775D01*
X-66629273Y-94617785D01*
X-66872045Y-94517226D01*
X-67129771Y-94465961D01*
X-67392547Y-94465961D01*
X-67650273Y-94517226D01*
X-67893045Y-94617785D01*
X-68111535Y-94763775D01*
X-68297345Y-94949585D01*
X-68443335Y-95168075D01*
X-68531159Y-95380102D01*
X-68618983Y-95168075D01*
X-68764973Y-94949585D01*
X-68950783Y-94763775D01*
X-69169273Y-94617785D01*
X-69412045Y-94517226D01*
X-69669771Y-94465961D01*
X-69932547Y-94465961D01*
X-70190273Y-94517226D01*
X-70433045Y-94617785D01*
X-70651535Y-94763775D01*
X-70837345Y-94949585D01*
X-70983335Y-95168075D01*
X-71071159Y-95380102D01*
X-71158983Y-95168075D01*
X-71304973Y-94949585D01*
X-71490783Y-94763775D01*
X-71709273Y-94617785D01*
X-71952045Y-94517226D01*
X-72209771Y-94465961D01*
X-72472547Y-94465961D01*
X-72730273Y-94517226D01*
X-72973045Y-94617785D01*
X-73191535Y-94763775D01*
X-73377345Y-94949585D01*
X-73523335Y-95168075D01*
X-73623894Y-95410847D01*
X-73675159Y-95668573D01*
X-77357159Y-95668573D01*
X-77408424Y-95410847D01*
X-77508983Y-95168075D01*
X-77654973Y-94949585D01*
X-77840783Y-94763775D01*
X-78059273Y-94617785D01*
X-78302045Y-94517226D01*
X-78559771Y-94465961D01*
X-78822547Y-94465961D01*
X-79080273Y-94517226D01*
X-79323045Y-94617785D01*
X-79541535Y-94763775D01*
X-79727345Y-94949585D01*
X-79873335Y-95168075D01*
X-79961159Y-95380102D01*
X-80048983Y-95168075D01*
X-80194973Y-94949585D01*
X-80380783Y-94763775D01*
X-80599273Y-94617785D01*
X-80842045Y-94517226D01*
X-81099771Y-94465961D01*
X-81362547Y-94465961D01*
X-81620273Y-94517226D01*
X-81863045Y-94617785D01*
X-82081535Y-94763775D01*
X-82267345Y-94949585D01*
X-82413335Y-95168075D01*
X-82501159Y-95380102D01*
X-82588983Y-95168075D01*
X-82734973Y-94949585D01*
X-82920783Y-94763775D01*
X-83139273Y-94617785D01*
X-83382045Y-94517226D01*
X-83639771Y-94465961D01*
X-83902547Y-94465961D01*
X-84160273Y-94517226D01*
X-84403045Y-94617785D01*
X-84621535Y-94763775D01*
X-84807345Y-94949585D01*
X-84953335Y-95168075D01*
X-85041159Y-95380102D01*
X-85128983Y-95168075D01*
X-85274973Y-94949585D01*
X-85460783Y-94763775D01*
X-85679273Y-94617785D01*
X-85922045Y-94517226D01*
X-86179771Y-94465961D01*
X-86442547Y-94465961D01*
X-86700273Y-94517226D01*
X-86943045Y-94617785D01*
X-87161535Y-94763775D01*
X-87347345Y-94949585D01*
X-87493335Y-95168075D01*
X-87593894Y-95410847D01*
X-87645159Y-95668573D01*
X-91288000Y-95668573D01*
X-91288000Y-93937999D01*
X-91126497Y-94179705D01*
X-90870903Y-94435299D01*
X-90570358Y-94636117D01*
X-90236409Y-94774443D01*
X-89881891Y-94844961D01*
X-89520427Y-94844961D01*
X-89165909Y-94774443D01*
X-88831960Y-94636117D01*
X-88531415Y-94435299D01*
X-88275821Y-94179705D01*
X-88075003Y-93879160D01*
X-87936677Y-93545211D01*
X-87866159Y-93190693D01*
X-87866159Y-93128573D01*
X-86375159Y-93128573D01*
X-86375159Y-93391349D01*
X-86323894Y-93649075D01*
X-86223335Y-93891847D01*
X-86077345Y-94110337D01*
X-85891535Y-94296147D01*
X-85673045Y-94442137D01*
X-85430273Y-94542696D01*
X-85172547Y-94593961D01*
X-84909771Y-94593961D01*
X-84652045Y-94542696D01*
X-84409273Y-94442137D01*
X-84190783Y-94296147D01*
X-84004973Y-94110337D01*
X-83858983Y-93891847D01*
X-83771159Y-93679820D01*
X-83683335Y-93891847D01*
X-83537345Y-94110337D01*
X-83351535Y-94296147D01*
X-83133045Y-94442137D01*
X-82890273Y-94542696D01*
X-82632547Y-94593961D01*
X-82369771Y-94593961D01*
X-82112045Y-94542696D01*
X-81869273Y-94442137D01*
X-81650783Y-94296147D01*
X-81464973Y-94110337D01*
X-81318983Y-93891847D01*
X-81231159Y-93679820D01*
X-81143335Y-93891847D01*
X-80997345Y-94110337D01*
X-80811535Y-94296147D01*
X-80593045Y-94442137D01*
X-80350273Y-94542696D01*
X-80092547Y-94593961D01*
X-79829771Y-94593961D01*
X-79572045Y-94542696D01*
X-79329273Y-94442137D01*
X-79110783Y-94296147D01*
X-78924973Y-94110337D01*
X-78778983Y-93891847D01*
X-78691159Y-93679820D01*
X-78603335Y-93891847D01*
X-78457345Y-94110337D01*
X-78271535Y-94296147D01*
X-78053045Y-94442137D01*
X-77810273Y-94542696D01*
X-77552547Y-94593961D01*
X-77289771Y-94593961D01*
X-77032045Y-94542696D01*
X-76789273Y-94442137D01*
X-76570783Y-94296147D01*
X-76384973Y-94110337D01*
X-76238983Y-93891847D01*
X-76138424Y-93649075D01*
X-76087159Y-93391349D01*
X-76087159Y-93128573D01*
X-72405159Y-93128573D01*
X-72405159Y-93391349D01*
X-72353894Y-93649075D01*
X-72253335Y-93891847D01*
X-72107345Y-94110337D01*
X-71921535Y-94296147D01*
X-71703045Y-94442137D01*
X-71460273Y-94542696D01*
X-71202547Y-94593961D01*
X-70939771Y-94593961D01*
X-70682045Y-94542696D01*
X-70439273Y-94442137D01*
X-70220783Y-94296147D01*
X-70034973Y-94110337D01*
X-69888983Y-93891847D01*
X-69801159Y-93679820D01*
X-69713335Y-93891847D01*
X-69567345Y-94110337D01*
X-69381535Y-94296147D01*
X-69163045Y-94442137D01*
X-68920273Y-94542696D01*
X-68662547Y-94593961D01*
X-68399771Y-94593961D01*
X-68142045Y-94542696D01*
X-67899273Y-94442137D01*
X-67680783Y-94296147D01*
X-67494973Y-94110337D01*
X-67348983Y-93891847D01*
X-67261159Y-93679820D01*
X-67173335Y-93891847D01*
X-67027345Y-94110337D01*
X-66841535Y-94296147D01*
X-66623045Y-94442137D01*
X-66380273Y-94542696D01*
X-66122547Y-94593961D01*
X-65859771Y-94593961D01*
X-65602045Y-94542696D01*
X-65359273Y-94442137D01*
X-65140783Y-94296147D01*
X-64954973Y-94110337D01*
X-64808983Y-93891847D01*
X-64721159Y-93679820D01*
X-64633335Y-93891847D01*
X-64487345Y-94110337D01*
X-64301535Y-94296147D01*
X-64083045Y-94442137D01*
X-63840273Y-94542696D01*
X-63582547Y-94593961D01*
X-63319771Y-94593961D01*
X-63062045Y-94542696D01*
X-62819273Y-94442137D01*
X-62600783Y-94296147D01*
X-62414973Y-94110337D01*
X-62268983Y-93891847D01*
X-62168424Y-93649075D01*
X-62117159Y-93391349D01*
X-62117159Y-93128573D01*
X-62168424Y-92870847D01*
X-62268983Y-92628075D01*
X-62414973Y-92409585D01*
X-62600783Y-92223775D01*
X-62819273Y-92077785D01*
X-63062045Y-91977226D01*
X-63319771Y-91925961D01*
X-63582547Y-91925961D01*
X-63840273Y-91977226D01*
X-64083045Y-92077785D01*
X-64301535Y-92223775D01*
X-64487345Y-92409585D01*
X-64633335Y-92628075D01*
X-64721159Y-92840102D01*
X-64808983Y-92628075D01*
X-64954973Y-92409585D01*
X-65140783Y-92223775D01*
X-65359273Y-92077785D01*
X-65602045Y-91977226D01*
X-65859771Y-91925961D01*
X-66122547Y-91925961D01*
X-66380273Y-91977226D01*
X-66623045Y-92077785D01*
X-66841535Y-92223775D01*
X-67027345Y-92409585D01*
X-67173335Y-92628075D01*
X-67261159Y-92840102D01*
X-67348983Y-92628075D01*
X-67494973Y-92409585D01*
X-67680783Y-92223775D01*
X-67899273Y-92077785D01*
X-68142045Y-91977226D01*
X-68399771Y-91925961D01*
X-68662547Y-91925961D01*
X-68920273Y-91977226D01*
X-69163045Y-92077785D01*
X-69381535Y-92223775D01*
X-69567345Y-92409585D01*
X-69713335Y-92628075D01*
X-69801159Y-92840102D01*
X-69888983Y-92628075D01*
X-70034973Y-92409585D01*
X-70220783Y-92223775D01*
X-70439273Y-92077785D01*
X-70682045Y-91977226D01*
X-70939771Y-91925961D01*
X-71202547Y-91925961D01*
X-71460273Y-91977226D01*
X-71703045Y-92077785D01*
X-71921535Y-92223775D01*
X-72107345Y-92409585D01*
X-72253335Y-92628075D01*
X-72353894Y-92870847D01*
X-72405159Y-93128573D01*
X-76087159Y-93128573D01*
X-76138424Y-92870847D01*
X-76238983Y-92628075D01*
X-76384973Y-92409585D01*
X-76570783Y-92223775D01*
X-76789273Y-92077785D01*
X-77032045Y-91977226D01*
X-77289771Y-91925961D01*
X-77552547Y-91925961D01*
X-77810273Y-91977226D01*
X-78053045Y-92077785D01*
X-78271535Y-92223775D01*
X-78457345Y-92409585D01*
X-78603335Y-92628075D01*
X-78691159Y-92840102D01*
X-78778983Y-92628075D01*
X-78924973Y-92409585D01*
X-79110783Y-92223775D01*
X-79329273Y-92077785D01*
X-79572045Y-91977226D01*
X-79829771Y-91925961D01*
X-80092547Y-91925961D01*
X-80350273Y-91977226D01*
X-80593045Y-92077785D01*
X-80811535Y-92223775D01*
X-80997345Y-92409585D01*
X-81143335Y-92628075D01*
X-81231159Y-92840102D01*
X-81318983Y-92628075D01*
X-81464973Y-92409585D01*
X-81650783Y-92223775D01*
X-81869273Y-92077785D01*
X-82112045Y-91977226D01*
X-82369771Y-91925961D01*
X-82632547Y-91925961D01*
X-82890273Y-91977226D01*
X-83133045Y-92077785D01*
X-83351535Y-92223775D01*
X-83537345Y-92409585D01*
X-83683335Y-92628075D01*
X-83771159Y-92840102D01*
X-83858983Y-92628075D01*
X-84004973Y-92409585D01*
X-84190783Y-92223775D01*
X-84409273Y-92077785D01*
X-84652045Y-91977226D01*
X-84909771Y-91925961D01*
X-85172547Y-91925961D01*
X-85430273Y-91977226D01*
X-85673045Y-92077785D01*
X-85891535Y-92223775D01*
X-86077345Y-92409585D01*
X-86223335Y-92628075D01*
X-86323894Y-92870847D01*
X-86375159Y-93128573D01*
X-87866159Y-93128573D01*
X-87866159Y-92829229D01*
X-87936677Y-92474711D01*
X-88075003Y-92140762D01*
X-88275821Y-91840217D01*
X-88531415Y-91584623D01*
X-88831960Y-91383805D01*
X-89165909Y-91245479D01*
X-89520427Y-91174961D01*
X-89881891Y-91174961D01*
X-90236409Y-91245479D01*
X-90570358Y-91383805D01*
X-90870903Y-91584623D01*
X-91126497Y-91840217D01*
X-91288000Y-92081923D01*
X-91288000Y-89088573D01*
X-87645159Y-89088573D01*
X-87645159Y-89351349D01*
X-87593894Y-89609075D01*
X-87493335Y-89851847D01*
X-87347345Y-90070337D01*
X-87161535Y-90256147D01*
X-86943045Y-90402137D01*
X-86700273Y-90502696D01*
X-86442547Y-90553961D01*
X-86179771Y-90553961D01*
X-85922045Y-90502696D01*
X-85679273Y-90402137D01*
X-85460783Y-90256147D01*
X-85274973Y-90070337D01*
X-85128983Y-89851847D01*
X-85041159Y-89639820D01*
X-84953335Y-89851847D01*
X-84807345Y-90070337D01*
X-84621535Y-90256147D01*
X-84403045Y-90402137D01*
X-84160273Y-90502696D01*
X-83902547Y-90553961D01*
X-83639771Y-90553961D01*
X-83382045Y-90502696D01*
X-83139273Y-90402137D01*
X-82920783Y-90256147D01*
X-82734973Y-90070337D01*
X-82588983Y-89851847D01*
X-82501159Y-89639820D01*
X-82413335Y-89851847D01*
X-82267345Y-90070337D01*
X-82081535Y-90256147D01*
X-81863045Y-90402137D01*
X-81620273Y-90502696D01*
X-81362547Y-90553961D01*
X-81099771Y-90553961D01*
X-80842045Y-90502696D01*
X-80599273Y-90402137D01*
X-80380783Y-90256147D01*
X-80194973Y-90070337D01*
X-80048983Y-89851847D01*
X-79961159Y-89639820D01*
X-79873335Y-89851847D01*
X-79727345Y-90070337D01*
X-79541535Y-90256147D01*
X-79323045Y-90402137D01*
X-79080273Y-90502696D01*
X-78822547Y-90553961D01*
X-78559771Y-90553961D01*
X-78302045Y-90502696D01*
X-78059273Y-90402137D01*
X-77840783Y-90256147D01*
X-77654973Y-90070337D01*
X-77577881Y-89954961D01*
X-77115262Y-89954961D01*
X-77079157Y-89958517D01*
X-77043052Y-89954961D01*
X-76935072Y-89944326D01*
X-76796524Y-89902298D01*
X-76668837Y-89834048D01*
X-76556919Y-89742199D01*
X-76533899Y-89714149D01*
X-76025843Y-89206094D01*
X-75997803Y-89183082D01*
X-75974790Y-89155041D01*
X-75974787Y-89155038D01*
X-75949155Y-89123805D01*
X-75905953Y-89071164D01*
X-75837703Y-88943477D01*
X-75795675Y-88804929D01*
X-75785040Y-88696949D01*
X-75785040Y-88696948D01*
X-75781484Y-88660844D01*
X-75785040Y-88624739D01*
X-75785040Y-86552943D01*
X-75750358Y-86576117D01*
X-75416409Y-86714443D01*
X-75061891Y-86784961D01*
X-74700427Y-86784961D01*
X-74345909Y-86714443D01*
X-74011960Y-86576117D01*
X-73711415Y-86375299D01*
X-73455821Y-86119705D01*
X-73255003Y-85819160D01*
X-73116677Y-85485211D01*
X-73046159Y-85130693D01*
X-73046159Y-84769229D01*
X-73116677Y-84414711D01*
X-73255003Y-84080762D01*
X-73455821Y-83780217D01*
X-73711415Y-83524623D01*
X-74011960Y-83323805D01*
X-74345909Y-83185479D01*
X-74700427Y-83114961D01*
X-75061891Y-83114961D01*
X-75416409Y-83185479D01*
X-75750358Y-83323805D01*
X-75785040Y-83346979D01*
X-75785040Y-82063611D01*
X-71784241Y-82063611D01*
X-71686917Y-82337972D01*
X-71537938Y-82588075D01*
X-71343029Y-82804308D01*
X-71109680Y-82978361D01*
X-70846859Y-83103545D01*
X-70699650Y-83148196D01*
X-70469760Y-83026875D01*
X-70469760Y-81833720D01*
X-71663574Y-81833720D01*
X-71784241Y-82063611D01*
X-75785040Y-82063611D01*
X-75785040Y-81349829D01*
X-71784241Y-81349829D01*
X-71663574Y-81579720D01*
X-70469760Y-81579720D01*
X-70469760Y-80386565D01*
X-70215760Y-80386565D01*
X-70215760Y-81579720D01*
X-70195760Y-81579720D01*
X-70195760Y-81833720D01*
X-70215760Y-81833720D01*
X-70215760Y-83026875D01*
X-69985870Y-83148196D01*
X-69838661Y-83103545D01*
X-69575840Y-82978361D01*
X-69342491Y-82804308D01*
X-69266726Y-82720254D01*
X-69242262Y-82800900D01*
X-69183297Y-82911214D01*
X-69103945Y-83007905D01*
X-69007254Y-83087257D01*
X-68896940Y-83146222D01*
X-68777242Y-83182532D01*
X-68652760Y-83194792D01*
X-66952760Y-83194792D01*
X-66828278Y-83182532D01*
X-66708580Y-83146222D01*
X-66598266Y-83087257D01*
X-66501575Y-83007905D01*
X-66422223Y-82911214D01*
X-66363258Y-82800900D01*
X-66326948Y-82681202D01*
X-66314688Y-82556720D01*
X-66314688Y-80856720D01*
X-66326948Y-80732238D01*
X-66363258Y-80612540D01*
X-66422223Y-80502226D01*
X-66501575Y-80405535D01*
X-66598266Y-80326183D01*
X-66708580Y-80267218D01*
X-66828278Y-80230908D01*
X-66952760Y-80218648D01*
X-68652760Y-80218648D01*
X-68777242Y-80230908D01*
X-68896940Y-80267218D01*
X-69007254Y-80326183D01*
X-69103945Y-80405535D01*
X-69183297Y-80502226D01*
X-69242262Y-80612540D01*
X-69266726Y-80693186D01*
X-69342491Y-80609132D01*
X-69575840Y-80435079D01*
X-69838661Y-80309895D01*
X-69985870Y-80265244D01*
X-70215760Y-80386565D01*
X-70469760Y-80386565D01*
X-70699650Y-80265244D01*
X-70846859Y-80309895D01*
X-71109680Y-80435079D01*
X-71343029Y-80609132D01*
X-71537938Y-80825365D01*
X-71686917Y-81075468D01*
X-71784241Y-81349829D01*
X-75785040Y-81349829D01*
X-75785040Y-77034315D01*
X-75601847Y-77156720D01*
X-75340694Y-77264893D01*
X-75063455Y-77320040D01*
X-74780785Y-77320040D01*
X-74503546Y-77264893D01*
X-74242393Y-77156720D01*
X-74007361Y-76999677D01*
X-73807483Y-76799799D01*
X-73650440Y-76564767D01*
X-73542267Y-76303614D01*
X-73537120Y-76277739D01*
X-73531973Y-76303614D01*
X-73423800Y-76564767D01*
X-73266757Y-76799799D01*
X-73066879Y-76999677D01*
X-72831847Y-77156720D01*
X-72570694Y-77264893D01*
X-72293455Y-77320040D01*
X-72010785Y-77320040D01*
X-71733546Y-77264893D01*
X-71472393Y-77156720D01*
X-71237361Y-76999677D01*
X-71037483Y-76799799D01*
X-70880440Y-76564767D01*
X-70772267Y-76303614D01*
X-70767120Y-76277739D01*
X-70761973Y-76303614D01*
X-70653800Y-76564767D01*
X-70496757Y-76799799D01*
X-70296879Y-76999677D01*
X-70061847Y-77156720D01*
X-69800694Y-77264893D01*
X-69523455Y-77320040D01*
X-69240785Y-77320040D01*
X-68963546Y-77264893D01*
X-68702393Y-77156720D01*
X-68467361Y-76999677D01*
X-68381945Y-76914261D01*
X-63569519Y-81726688D01*
X-63569520Y-85345961D01*
X-63582547Y-85345961D01*
X-63840273Y-85397226D01*
X-64083045Y-85497785D01*
X-64301535Y-85643775D01*
X-64487345Y-85829585D01*
X-64633335Y-86048075D01*
X-64721159Y-86260102D01*
X-64808983Y-86048075D01*
X-64954973Y-85829585D01*
X-65140783Y-85643775D01*
X-65359273Y-85497785D01*
X-65602045Y-85397226D01*
X-65859771Y-85345961D01*
X-66122547Y-85345961D01*
X-66380273Y-85397226D01*
X-66623045Y-85497785D01*
X-66841535Y-85643775D01*
X-67027345Y-85829585D01*
X-67173335Y-86048075D01*
X-67261159Y-86260102D01*
X-67348983Y-86048075D01*
X-67494973Y-85829585D01*
X-67680783Y-85643775D01*
X-67899273Y-85497785D01*
X-68142045Y-85397226D01*
X-68399771Y-85345961D01*
X-68662547Y-85345961D01*
X-68920273Y-85397226D01*
X-69163045Y-85497785D01*
X-69381535Y-85643775D01*
X-69567345Y-85829585D01*
X-69713335Y-86048075D01*
X-69801159Y-86260102D01*
X-69888983Y-86048075D01*
X-70034973Y-85829585D01*
X-70220783Y-85643775D01*
X-70439273Y-85497785D01*
X-70682045Y-85397226D01*
X-70939771Y-85345961D01*
X-71202547Y-85345961D01*
X-71460273Y-85397226D01*
X-71703045Y-85497785D01*
X-71921535Y-85643775D01*
X-72107345Y-85829585D01*
X-72253335Y-86048075D01*
X-72353894Y-86290847D01*
X-72405159Y-86548573D01*
X-72405159Y-86811349D01*
X-72353894Y-87069075D01*
X-72253335Y-87311847D01*
X-72107345Y-87530337D01*
X-71921535Y-87716147D01*
X-71703045Y-87862137D01*
X-71460273Y-87962696D01*
X-71202547Y-88013961D01*
X-70939771Y-88013961D01*
X-70682045Y-87962696D01*
X-70439273Y-87862137D01*
X-70220783Y-87716147D01*
X-70034973Y-87530337D01*
X-69888983Y-87311847D01*
X-69801159Y-87099820D01*
X-69713335Y-87311847D01*
X-69567345Y-87530337D01*
X-69381535Y-87716147D01*
X-69163045Y-87862137D01*
X-68920273Y-87962696D01*
X-68662547Y-88013961D01*
X-68399771Y-88013961D01*
X-68142045Y-87962696D01*
X-67899273Y-87862137D01*
X-67680783Y-87716147D01*
X-67494973Y-87530337D01*
X-67348983Y-87311847D01*
X-67261159Y-87099820D01*
X-67173335Y-87311847D01*
X-67027345Y-87530337D01*
X-66841535Y-87716147D01*
X-66623045Y-87862137D01*
X-66380273Y-87962696D01*
X-66122547Y-88013961D01*
X-65859771Y-88013961D01*
X-65602045Y-87962696D01*
X-65359273Y-87862137D01*
X-65140783Y-87716147D01*
X-64954973Y-87530337D01*
X-64808983Y-87311847D01*
X-64721159Y-87099820D01*
X-64633335Y-87311847D01*
X-64487345Y-87530337D01*
X-64301535Y-87716147D01*
X-64083045Y-87862137D01*
X-63840273Y-87962696D01*
X-63582547Y-88013961D01*
X-63566071Y-88013961D01*
X-63803334Y-88251224D01*
X-63870783Y-88183775D01*
X-64089273Y-88037785D01*
X-64332045Y-87937226D01*
X-64589771Y-87885961D01*
X-64852547Y-87885961D01*
X-65110273Y-87937226D01*
X-65353045Y-88037785D01*
X-65571535Y-88183775D01*
X-65757345Y-88369585D01*
X-65903335Y-88588075D01*
X-65991159Y-88800102D01*
X-66078983Y-88588075D01*
X-66224973Y-88369585D01*
X-66410783Y-88183775D01*
X-66629273Y-88037785D01*
X-66872045Y-87937226D01*
X-67129771Y-87885961D01*
X-67392547Y-87885961D01*
X-67650273Y-87937226D01*
X-67893045Y-88037785D01*
X-68111535Y-88183775D01*
X-68297345Y-88369585D01*
X-68443335Y-88588075D01*
X-68531159Y-88800102D01*
X-68618983Y-88588075D01*
X-68764973Y-88369585D01*
X-68950783Y-88183775D01*
X-69169273Y-88037785D01*
X-69412045Y-87937226D01*
X-69669771Y-87885961D01*
X-69932547Y-87885961D01*
X-70190273Y-87937226D01*
X-70433045Y-88037785D01*
X-70651535Y-88183775D01*
X-70837345Y-88369585D01*
X-70983335Y-88588075D01*
X-71071159Y-88800102D01*
X-71158983Y-88588075D01*
X-71304973Y-88369585D01*
X-71490783Y-88183775D01*
X-71709273Y-88037785D01*
X-71952045Y-87937226D01*
X-72209771Y-87885961D01*
X-72472547Y-87885961D01*
X-72730273Y-87937226D01*
X-72973045Y-88037785D01*
X-73191535Y-88183775D01*
X-73377345Y-88369585D01*
X-73523335Y-88588075D01*
X-73623894Y-88830847D01*
X-73675159Y-89088573D01*
X-73675159Y-89351349D01*
X-73623894Y-89609075D01*
X-73523335Y-89851847D01*
X-73377345Y-90070337D01*
X-73191535Y-90256147D01*
X-72973045Y-90402137D01*
X-72730273Y-90502696D01*
X-72472547Y-90553961D01*
X-72209771Y-90553961D01*
X-71952045Y-90502696D01*
X-71709273Y-90402137D01*
X-71490783Y-90256147D01*
X-71304973Y-90070337D01*
X-71158983Y-89851847D01*
X-71071159Y-89639820D01*
X-70983335Y-89851847D01*
X-70837345Y-90070337D01*
X-70651535Y-90256147D01*
X-70433045Y-90402137D01*
X-70190273Y-90502696D01*
X-69932547Y-90553961D01*
X-69669771Y-90553961D01*
X-69412045Y-90502696D01*
X-69169273Y-90402137D01*
X-68950783Y-90256147D01*
X-68764973Y-90070337D01*
X-68618983Y-89851847D01*
X-68531159Y-89639820D01*
X-68443335Y-89851847D01*
X-68297345Y-90070337D01*
X-68111535Y-90256147D01*
X-67893045Y-90402137D01*
X-67650273Y-90502696D01*
X-67392547Y-90553961D01*
X-67129771Y-90553961D01*
X-66872045Y-90502696D01*
X-66629273Y-90402137D01*
X-66410783Y-90256147D01*
X-66224973Y-90070337D01*
X-66078983Y-89851847D01*
X-65991159Y-89639820D01*
X-65903335Y-89851847D01*
X-65757345Y-90070337D01*
X-65571535Y-90256147D01*
X-65353045Y-90402137D01*
X-65110273Y-90502696D01*
X-64852547Y-90553961D01*
X-64589771Y-90553961D01*
X-64332045Y-90502696D01*
X-64089273Y-90402137D01*
X-63870783Y-90256147D01*
X-63684973Y-90070337D01*
X-63601637Y-89945616D01*
X-63588539Y-89944326D01*
X-63449991Y-89902298D01*
X-63322304Y-89834048D01*
X-63210386Y-89742199D01*
X-63187366Y-89714149D01*
X-62040312Y-88567096D01*
X-62012272Y-88544084D01*
X-61989259Y-88516043D01*
X-61989256Y-88516040D01*
X-61920423Y-88432167D01*
X-61920422Y-88432166D01*
X-61852172Y-88304479D01*
X-61810144Y-88165931D01*
X-61799509Y-88057951D01*
X-61799509Y-88057942D01*
X-61795954Y-88021847D01*
X-61799509Y-87985752D01*
X-61799509Y-81313747D01*
X-61795954Y-81277650D01*
X-61799509Y-81241553D01*
X-61799509Y-81241546D01*
X-61810144Y-81133566D01*
X-61852172Y-80995018D01*
X-61920422Y-80867331D01*
X-62012271Y-80755413D01*
X-62040316Y-80732397D01*
X-65340174Y-77432539D01*
X-64090014Y-77432539D01*
X-63873892Y-77799298D01*
X-63414015Y-78039978D01*
X-62916022Y-78186315D01*
X-62399049Y-78232688D01*
X-61882961Y-78177313D01*
X-61387594Y-78022319D01*
X-60970348Y-77799298D01*
X-60754226Y-77432539D01*
X-62422120Y-75764645D01*
X-64090014Y-77432539D01*
X-65340174Y-77432539D01*
X-67164602Y-75608111D01*
X-65069768Y-75608111D01*
X-65014393Y-76124199D01*
X-64859399Y-76619566D01*
X-64636378Y-77036812D01*
X-64269619Y-77252934D01*
X-62601725Y-75585040D01*
X-62242515Y-75585040D01*
X-60574621Y-77252934D01*
X-60207862Y-77036812D01*
X-59967182Y-76576935D01*
X-59820845Y-76078942D01*
X-59774472Y-75561969D01*
X-59829847Y-75045881D01*
X-59984841Y-74550514D01*
X-60207862Y-74133268D01*
X-60574621Y-73917146D01*
X-62242515Y-75585040D01*
X-62601725Y-75585040D01*
X-64269619Y-73917146D01*
X-64636378Y-74133268D01*
X-64877058Y-74593145D01*
X-65023395Y-75091138D01*
X-65069768Y-75608111D01*
X-67164602Y-75608111D01*
X-69035172Y-73737541D01*
X-64090014Y-73737541D01*
X-62422120Y-75405435D01*
X-60754226Y-73737541D01*
X-60970348Y-73370782D01*
X-61430225Y-73130102D01*
X-61928218Y-72983765D01*
X-62445191Y-72937392D01*
X-62961279Y-72992767D01*
X-63456646Y-73147761D01*
X-63873892Y-73370782D01*
X-64090014Y-73737541D01*
X-69035172Y-73737541D01*
X-69374298Y-73398416D01*
X-69332120Y-73186375D01*
X-69332120Y-72903705D01*
X-69387267Y-72626466D01*
X-69495440Y-72365313D01*
X-69652483Y-72130281D01*
X-69852361Y-71930403D01*
X-70087393Y-71773360D01*
X-70348546Y-71665187D01*
X-70625785Y-71610040D01*
X-70908455Y-71610040D01*
X-71185694Y-71665187D01*
X-71446847Y-71773360D01*
X-71681879Y-71930403D01*
X-71881757Y-72130281D01*
X-72038800Y-72365313D01*
X-72146973Y-72626466D01*
X-72152120Y-72652341D01*
X-72157267Y-72626466D01*
X-72265440Y-72365313D01*
X-72422483Y-72130281D01*
X-72622361Y-71930403D01*
X-72857393Y-71773360D01*
X-73118546Y-71665187D01*
X-73395785Y-71610040D01*
X-73678455Y-71610040D01*
X-73955694Y-71665187D01*
X-74216847Y-71773360D01*
X-74451879Y-71930403D01*
X-74651757Y-72130281D01*
X-74672054Y-72160657D01*
X-75281861Y-71550851D01*
X-75304881Y-71522801D01*
X-75416799Y-71430952D01*
X-75544486Y-71362702D01*
X-75683034Y-71320674D01*
X-75791014Y-71310039D01*
X-75827119Y-71306483D01*
X-75863224Y-71310039D01*
X-76751017Y-71310039D01*
X-76787122Y-71306483D01*
X-76931207Y-71320674D01*
X-76973235Y-71333423D01*
X-77069754Y-71362702D01*
X-77197441Y-71430952D01*
X-77309359Y-71522801D01*
X-77332375Y-71550847D01*
X-77801313Y-72019785D01*
X-77829358Y-72042801D01*
X-77921208Y-72154719D01*
X-77932295Y-72175461D01*
X-77962483Y-72130281D01*
X-78162361Y-71930403D01*
X-78397393Y-71773360D01*
X-78658546Y-71665187D01*
X-78935785Y-71610040D01*
X-79218455Y-71610040D01*
X-79495694Y-71665187D01*
X-79756847Y-71773360D01*
X-79991879Y-71930403D01*
X-80191757Y-72130281D01*
X-80348800Y-72365313D01*
X-80456973Y-72626466D01*
X-80512120Y-72903705D01*
X-80512120Y-73186375D01*
X-80456973Y-73463614D01*
X-80348800Y-73724767D01*
X-80191757Y-73959799D01*
X-79991879Y-74159677D01*
X-79756847Y-74316720D01*
X-79601999Y-74380860D01*
X-79601999Y-74452889D01*
X-79662120Y-74446968D01*
X-81262120Y-74446968D01*
X-81386602Y-74459228D01*
X-81506300Y-74495538D01*
X-81616614Y-74554503D01*
X-81713305Y-74633855D01*
X-81792657Y-74730546D01*
X-81851622Y-74840860D01*
X-81887932Y-74960558D01*
X-81900192Y-75085040D01*
X-81900192Y-76685040D01*
X-81887932Y-76809522D01*
X-81851622Y-76929220D01*
X-81792657Y-77039534D01*
X-81713305Y-77136225D01*
X-81616614Y-77215577D01*
X-81506300Y-77274542D01*
X-81386602Y-77310852D01*
X-81262120Y-77323112D01*
X-79662120Y-77323112D01*
X-79601999Y-77317191D01*
X-79602000Y-80365877D01*
X-79809171Y-80451690D01*
X-80052392Y-80614205D01*
X-80184247Y-80746060D01*
X-80206258Y-80673500D01*
X-80265223Y-80563186D01*
X-80344575Y-80466495D01*
X-80441266Y-80387143D01*
X-80551580Y-80328178D01*
X-80671278Y-80291868D01*
X-80795760Y-80279608D01*
X-82495760Y-80279608D01*
X-82620242Y-80291868D01*
X-82739940Y-80328178D01*
X-82850254Y-80387143D01*
X-82946945Y-80466495D01*
X-83026297Y-80563186D01*
X-83085262Y-80673500D01*
X-83121572Y-80793198D01*
X-83133832Y-80917680D01*
X-83133832Y-82617680D01*
X-83121572Y-82742162D01*
X-83085262Y-82861860D01*
X-83026297Y-82972174D01*
X-82946945Y-83068865D01*
X-82850254Y-83148217D01*
X-82739940Y-83207182D01*
X-82620242Y-83243492D01*
X-82495760Y-83255752D01*
X-80795760Y-83255752D01*
X-80671278Y-83243492D01*
X-80551580Y-83207182D01*
X-80441266Y-83148217D01*
X-80344575Y-83068865D01*
X-80265223Y-82972174D01*
X-80206258Y-82861860D01*
X-80184247Y-82789300D01*
X-80052392Y-82921155D01*
X-79809171Y-83083670D01*
X-79538918Y-83195612D01*
X-79252020Y-83252680D01*
X-78959500Y-83252680D01*
X-78672602Y-83195612D01*
X-78402349Y-83083670D01*
X-78159128Y-82921155D01*
X-77952285Y-82714312D01*
X-77789770Y-82471091D01*
X-77677828Y-82200838D01*
X-77620760Y-81913940D01*
X-77620760Y-81621420D01*
X-77677828Y-81334522D01*
X-77789770Y-81064269D01*
X-77952285Y-80821048D01*
X-78132000Y-80641333D01*
X-78132000Y-77256068D01*
X-78110694Y-77264893D01*
X-77833455Y-77320040D01*
X-77564919Y-77320040D01*
X-77564920Y-85348422D01*
X-77810273Y-85397226D01*
X-78053045Y-85497785D01*
X-78271535Y-85643775D01*
X-78457345Y-85829585D01*
X-78603335Y-86048075D01*
X-78691159Y-86260102D01*
X-78778983Y-86048075D01*
X-78924973Y-85829585D01*
X-79110783Y-85643775D01*
X-79329273Y-85497785D01*
X-79572045Y-85397226D01*
X-79829771Y-85345961D01*
X-80092547Y-85345961D01*
X-80350273Y-85397226D01*
X-80593045Y-85497785D01*
X-80811535Y-85643775D01*
X-80997345Y-85829585D01*
X-81143335Y-86048075D01*
X-81231159Y-86260102D01*
X-81318983Y-86048075D01*
X-81464973Y-85829585D01*
X-81650783Y-85643775D01*
X-81869273Y-85497785D01*
X-82112045Y-85397226D01*
X-82369771Y-85345961D01*
X-82632547Y-85345961D01*
X-82890273Y-85397226D01*
X-83133045Y-85497785D01*
X-83351535Y-85643775D01*
X-83537345Y-85829585D01*
X-83683335Y-86048075D01*
X-83771159Y-86260102D01*
X-83858983Y-86048075D01*
X-84004973Y-85829585D01*
X-84190783Y-85643775D01*
X-84409273Y-85497785D01*
X-84652045Y-85397226D01*
X-84909771Y-85345961D01*
X-85172547Y-85345961D01*
X-85430273Y-85397226D01*
X-85673045Y-85497785D01*
X-85891535Y-85643775D01*
X-86077345Y-85829585D01*
X-86223335Y-86048075D01*
X-86323894Y-86290847D01*
X-86375159Y-86548573D01*
X-86375159Y-86811349D01*
X-86323894Y-87069075D01*
X-86223335Y-87311847D01*
X-86077345Y-87530337D01*
X-85891535Y-87716147D01*
X-85673045Y-87862137D01*
X-85430273Y-87962696D01*
X-85172547Y-88013961D01*
X-84909771Y-88013961D01*
X-84652045Y-87962696D01*
X-84409273Y-87862137D01*
X-84190783Y-87716147D01*
X-84004973Y-87530337D01*
X-83858983Y-87311847D01*
X-83771159Y-87099820D01*
X-83683335Y-87311847D01*
X-83537345Y-87530337D01*
X-83351535Y-87716147D01*
X-83133045Y-87862137D01*
X-82890273Y-87962696D01*
X-82632547Y-88013961D01*
X-82369771Y-88013961D01*
X-82112045Y-87962696D01*
X-81869273Y-87862137D01*
X-81650783Y-87716147D01*
X-81464973Y-87530337D01*
X-81318983Y-87311847D01*
X-81231159Y-87099820D01*
X-81143335Y-87311847D01*
X-80997345Y-87530337D01*
X-80811535Y-87716147D01*
X-80593045Y-87862137D01*
X-80350273Y-87962696D01*
X-80092547Y-88013961D01*
X-79829771Y-88013961D01*
X-79572045Y-87962696D01*
X-79329273Y-87862137D01*
X-79110783Y-87716147D01*
X-78924973Y-87530337D01*
X-78778983Y-87311847D01*
X-78691159Y-87099820D01*
X-78603335Y-87311847D01*
X-78457345Y-87530337D01*
X-78271535Y-87716147D01*
X-78053045Y-87862137D01*
X-77810273Y-87962696D01*
X-77552547Y-88013961D01*
X-77289771Y-88013961D01*
X-77255040Y-88007053D01*
X-77255040Y-88356397D01*
X-77383603Y-88484961D01*
X-77577881Y-88484961D01*
X-77654973Y-88369585D01*
X-77840783Y-88183775D01*
X-78059273Y-88037785D01*
X-78302045Y-87937226D01*
X-78559771Y-87885961D01*
X-78822547Y-87885961D01*
X-79080273Y-87937226D01*
X-79323045Y-88037785D01*
X-79541535Y-88183775D01*
X-79727345Y-88369585D01*
X-79873335Y-88588075D01*
X-79961159Y-88800102D01*
X-80048983Y-88588075D01*
X-80194973Y-88369585D01*
X-80380783Y-88183775D01*
X-80599273Y-88037785D01*
X-80842045Y-87937226D01*
X-81099771Y-87885961D01*
X-81362547Y-87885961D01*
X-81620273Y-87937226D01*
X-81863045Y-88037785D01*
X-82081535Y-88183775D01*
X-82267345Y-88369585D01*
X-82413335Y-88588075D01*
X-82501159Y-88800102D01*
X-82588983Y-88588075D01*
X-82734973Y-88369585D01*
X-82920783Y-88183775D01*
X-83139273Y-88037785D01*
X-83382045Y-87937226D01*
X-83639771Y-87885961D01*
X-83902547Y-87885961D01*
X-84160273Y-87937226D01*
X-84403045Y-88037785D01*
X-84621535Y-88183775D01*
X-84807345Y-88369585D01*
X-84953335Y-88588075D01*
X-85041159Y-88800102D01*
X-85128983Y-88588075D01*
X-85274973Y-88369585D01*
X-85460783Y-88183775D01*
X-85679273Y-88037785D01*
X-85922045Y-87937226D01*
X-86179771Y-87885961D01*
X-86442547Y-87885961D01*
X-86700273Y-87937226D01*
X-86943045Y-88037785D01*
X-87161535Y-88183775D01*
X-87347345Y-88369585D01*
X-87493335Y-88588075D01*
X-87593894Y-88830847D01*
X-87645159Y-89088573D01*
X-91288000Y-89088573D01*
X-91288000Y-88277624D01*
X-91245358Y-88306117D01*
X-90911409Y-88444443D01*
X-90556891Y-88514961D01*
X-90195427Y-88514961D01*
X-89840909Y-88444443D01*
X-89506960Y-88306117D01*
X-89206415Y-88105299D01*
X-88950821Y-87849705D01*
X-88750003Y-87549160D01*
X-88611677Y-87215211D01*
X-88541159Y-86860693D01*
X-88541159Y-86499229D01*
X-88611677Y-86144711D01*
X-88750003Y-85810762D01*
X-88950821Y-85510217D01*
X-89206415Y-85254623D01*
X-89506960Y-85053805D01*
X-89840909Y-84915479D01*
X-90195427Y-84844961D01*
X-90556891Y-84844961D01*
X-90911409Y-84915479D01*
X-91245358Y-85053805D01*
X-91288000Y-85082298D01*
X-91288000Y-77432539D01*
X-89090014Y-77432539D01*
X-88873892Y-77799298D01*
X-88414015Y-78039978D01*
X-87916022Y-78186315D01*
X-87399049Y-78232688D01*
X-86882961Y-78177313D01*
X-86387594Y-78022319D01*
X-85970348Y-77799298D01*
X-85754226Y-77432539D01*
X-87422120Y-75764645D01*
X-89090014Y-77432539D01*
X-91288000Y-77432539D01*
X-91288000Y-75608111D01*
X-90069768Y-75608111D01*
X-90014393Y-76124199D01*
X-89859399Y-76619566D01*
X-89636378Y-77036812D01*
X-89269619Y-77252934D01*
X-87601725Y-75585040D01*
X-87242515Y-75585040D01*
X-85574621Y-77252934D01*
X-85207862Y-77036812D01*
X-84967182Y-76576935D01*
X-84820845Y-76078942D01*
X-84774472Y-75561969D01*
X-84829847Y-75045881D01*
X-84984841Y-74550514D01*
X-85207862Y-74133268D01*
X-85574621Y-73917146D01*
X-87242515Y-75585040D01*
X-87601725Y-75585040D01*
X-89269619Y-73917146D01*
X-89636378Y-74133268D01*
X-89877058Y-74593145D01*
X-90023395Y-75091138D01*
X-90069768Y-75608111D01*
X-91288000Y-75608111D01*
X-91288000Y-73737541D01*
X-89090014Y-73737541D01*
X-87422120Y-75405435D01*
X-85754226Y-73737541D01*
X-85970348Y-73370782D01*
X-86430225Y-73130102D01*
X-86928218Y-72983765D01*
X-87445191Y-72937392D01*
X-87961279Y-72992767D01*
X-88456646Y-73147761D01*
X-88873892Y-73370782D01*
X-89090014Y-73737541D01*
X-91288000Y-73737541D01*
X-91288000Y-68732000D01*
X-58444999Y-68732000D01*
X-58445000Y-89171888D01*
%TA.AperFunction,Conductor*%
D19*
G36*
X-58445000Y-89171888D02*
G01*
X-58516960Y-89123805D01*
X-58850909Y-88985479D01*
X-59205427Y-88914961D01*
X-59566891Y-88914961D01*
X-59921409Y-88985479D01*
X-60255358Y-89123805D01*
X-60555903Y-89324623D01*
X-60811497Y-89580217D01*
X-61012315Y-89880762D01*
X-61150641Y-90214711D01*
X-61221159Y-90569229D01*
X-61221159Y-90930693D01*
X-61150641Y-91285211D01*
X-61012315Y-91619160D01*
X-60811497Y-91919705D01*
X-60555903Y-92175299D01*
X-60255358Y-92376117D01*
X-59921409Y-92514443D01*
X-59566891Y-92584961D01*
X-59205427Y-92584961D01*
X-58850909Y-92514443D01*
X-58516960Y-92376117D01*
X-58445000Y-92328035D01*
X-58445000Y-95425801D01*
X-58635821Y-95140217D01*
X-58891415Y-94884623D01*
X-59191960Y-94683805D01*
X-59525909Y-94545479D01*
X-59880427Y-94474961D01*
X-60241891Y-94474961D01*
X-60596409Y-94545479D01*
X-60930358Y-94683805D01*
X-61230903Y-94884623D01*
X-61486497Y-95140217D01*
X-61687315Y-95440762D01*
X-61825641Y-95774711D01*
X-61896159Y-96129229D01*
X-61896159Y-96490693D01*
X-61825641Y-96845211D01*
X-61687315Y-97179160D01*
X-61486497Y-97479705D01*
X-61230903Y-97735299D01*
X-60930358Y-97936117D01*
X-60596409Y-98074443D01*
X-60241891Y-98144961D01*
X-59880427Y-98144961D01*
X-59525909Y-98074443D01*
X-59191960Y-97936117D01*
X-58891415Y-97735299D01*
X-58635821Y-97479705D01*
X-58445000Y-97194121D01*
X-58445000Y-105141887D01*
X-58516960Y-105093805D01*
X-58850909Y-104955479D01*
X-59205427Y-104884961D01*
X-59566891Y-104884961D01*
X-59921409Y-104955479D01*
X-60255358Y-105093805D01*
X-60555903Y-105294623D01*
X-60811497Y-105550217D01*
X-61012315Y-105850762D01*
X-61150641Y-106184711D01*
X-61221159Y-106539229D01*
X-61221159Y-106900693D01*
X-61150641Y-107255211D01*
X-61012315Y-107589160D01*
X-60811497Y-107889705D01*
X-60555903Y-108145299D01*
X-60255358Y-108346117D01*
X-59921409Y-108484443D01*
X-59566891Y-108554961D01*
X-59205427Y-108554961D01*
X-58850909Y-108484443D01*
X-58516960Y-108346117D01*
X-58445000Y-108298035D01*
X-58445000Y-108298582D01*
X-58444999Y-112751000D01*
X-91288000Y-112751000D01*
X-91288000Y-108317624D01*
X-91245358Y-108346117D01*
X-90911409Y-108484443D01*
X-90556891Y-108554961D01*
X-90195427Y-108554961D01*
X-89840909Y-108484443D01*
X-89506960Y-108346117D01*
X-89206415Y-108145299D01*
X-88950821Y-107889705D01*
X-88750003Y-107589160D01*
X-88611677Y-107255211D01*
X-88541159Y-106900693D01*
X-88541159Y-106539229D01*
X-88611677Y-106184711D01*
X-88750003Y-105850762D01*
X-88950821Y-105550217D01*
X-89206415Y-105294623D01*
X-89506960Y-105093805D01*
X-89840909Y-104955479D01*
X-90195427Y-104884961D01*
X-90556891Y-104884961D01*
X-90911409Y-104955479D01*
X-91245358Y-105093805D01*
X-91288000Y-105122298D01*
X-91288000Y-101927370D01*
X-89841159Y-101927370D01*
X-89841159Y-102372552D01*
X-89754308Y-102809179D01*
X-89583945Y-103220472D01*
X-89336615Y-103590627D01*
X-89021825Y-103905417D01*
X-88651670Y-104152747D01*
X-88240377Y-104323110D01*
X-87803750Y-104409961D01*
X-87358568Y-104409961D01*
X-86921941Y-104323110D01*
X-86510648Y-104152747D01*
X-86140493Y-103905417D01*
X-85825703Y-103590627D01*
X-85578373Y-103220472D01*
X-85408010Y-102809179D01*
X-85321159Y-102372552D01*
X-85321159Y-101927370D01*
X-64441159Y-101927370D01*
X-64441159Y-102372552D01*
X-64354308Y-102809179D01*
X-64183945Y-103220472D01*
X-63936615Y-103590627D01*
X-63621825Y-103905417D01*
X-63251670Y-104152747D01*
X-62840377Y-104323110D01*
X-62403750Y-104409961D01*
X-61958568Y-104409961D01*
X-61521941Y-104323110D01*
X-61110648Y-104152747D01*
X-60740493Y-103905417D01*
X-60425703Y-103590627D01*
X-60178373Y-103220472D01*
X-60008010Y-102809179D01*
X-59921159Y-102372552D01*
X-59921159Y-101927370D01*
X-60008010Y-101490743D01*
X-60178373Y-101079450D01*
X-60425703Y-100709295D01*
X-60740493Y-100394505D01*
X-61110648Y-100147175D01*
X-61521941Y-99976812D01*
X-61958568Y-99889961D01*
X-62403750Y-99889961D01*
X-62840377Y-99976812D01*
X-63251670Y-100147175D01*
X-63621825Y-100394505D01*
X-63936615Y-100709295D01*
X-64183945Y-101079450D01*
X-64354308Y-101490743D01*
X-64441159Y-101927370D01*
X-85321159Y-101927370D01*
X-85408010Y-101490743D01*
X-85578373Y-101079450D01*
X-85825703Y-100709295D01*
X-86140493Y-100394505D01*
X-86510648Y-100147175D01*
X-86921941Y-99976812D01*
X-87358568Y-99889961D01*
X-87803750Y-99889961D01*
X-88240377Y-99976812D01*
X-88651670Y-100147175D01*
X-89021825Y-100394505D01*
X-89336615Y-100709295D01*
X-89583945Y-101079450D01*
X-89754308Y-101490743D01*
X-89841159Y-101927370D01*
X-91288000Y-101927370D01*
X-91288000Y-95668573D01*
X-87645159Y-95668573D01*
X-87645159Y-95931349D01*
X-87593894Y-96189075D01*
X-87493335Y-96431847D01*
X-87347345Y-96650337D01*
X-87161535Y-96836147D01*
X-86943045Y-96982137D01*
X-86700273Y-97082696D01*
X-86442547Y-97133961D01*
X-86179771Y-97133961D01*
X-85922045Y-97082696D01*
X-85679273Y-96982137D01*
X-85460783Y-96836147D01*
X-85274973Y-96650337D01*
X-85128983Y-96431847D01*
X-85041159Y-96219820D01*
X-84953335Y-96431847D01*
X-84807345Y-96650337D01*
X-84621535Y-96836147D01*
X-84403045Y-96982137D01*
X-84160273Y-97082696D01*
X-83902547Y-97133961D01*
X-83639771Y-97133961D01*
X-83382045Y-97082696D01*
X-83139273Y-96982137D01*
X-82920783Y-96836147D01*
X-82734973Y-96650337D01*
X-82588983Y-96431847D01*
X-82501159Y-96219820D01*
X-82413335Y-96431847D01*
X-82267345Y-96650337D01*
X-82081535Y-96836147D01*
X-81863045Y-96982137D01*
X-81620273Y-97082696D01*
X-81362547Y-97133961D01*
X-81099771Y-97133961D01*
X-80842045Y-97082696D01*
X-80599273Y-96982137D01*
X-80380783Y-96836147D01*
X-80194973Y-96650337D01*
X-80048983Y-96431847D01*
X-79961159Y-96219820D01*
X-79873335Y-96431847D01*
X-79727345Y-96650337D01*
X-79541535Y-96836147D01*
X-79323045Y-96982137D01*
X-79080273Y-97082696D01*
X-78822547Y-97133961D01*
X-78559771Y-97133961D01*
X-78302045Y-97082696D01*
X-78059273Y-96982137D01*
X-77840783Y-96836147D01*
X-77654973Y-96650337D01*
X-77508983Y-96431847D01*
X-77408424Y-96189075D01*
X-77357159Y-95931349D01*
X-77357159Y-95668573D01*
X-73675159Y-95668573D01*
X-73675159Y-95931349D01*
X-73623894Y-96189075D01*
X-73523335Y-96431847D01*
X-73377345Y-96650337D01*
X-73191535Y-96836147D01*
X-72973045Y-96982137D01*
X-72730273Y-97082696D01*
X-72472547Y-97133961D01*
X-72209771Y-97133961D01*
X-71952045Y-97082696D01*
X-71709273Y-96982137D01*
X-71490783Y-96836147D01*
X-71304973Y-96650337D01*
X-71158983Y-96431847D01*
X-71071159Y-96219820D01*
X-70983335Y-96431847D01*
X-70837345Y-96650337D01*
X-70651535Y-96836147D01*
X-70433045Y-96982137D01*
X-70190273Y-97082696D01*
X-69932547Y-97133961D01*
X-69669771Y-97133961D01*
X-69412045Y-97082696D01*
X-69169273Y-96982137D01*
X-68950783Y-96836147D01*
X-68764973Y-96650337D01*
X-68618983Y-96431847D01*
X-68531159Y-96219820D01*
X-68443335Y-96431847D01*
X-68297345Y-96650337D01*
X-68111535Y-96836147D01*
X-67893045Y-96982137D01*
X-67650273Y-97082696D01*
X-67392547Y-97133961D01*
X-67129771Y-97133961D01*
X-66872045Y-97082696D01*
X-66629273Y-96982137D01*
X-66410783Y-96836147D01*
X-66224973Y-96650337D01*
X-66078983Y-96431847D01*
X-65991159Y-96219820D01*
X-65903335Y-96431847D01*
X-65757345Y-96650337D01*
X-65571535Y-96836147D01*
X-65353045Y-96982137D01*
X-65110273Y-97082696D01*
X-64852547Y-97133961D01*
X-64589771Y-97133961D01*
X-64332045Y-97082696D01*
X-64089273Y-96982137D01*
X-63870783Y-96836147D01*
X-63684973Y-96650337D01*
X-63538983Y-96431847D01*
X-63438424Y-96189075D01*
X-63387159Y-95931349D01*
X-63387159Y-95668573D01*
X-63438424Y-95410847D01*
X-63538983Y-95168075D01*
X-63684973Y-94949585D01*
X-63870783Y-94763775D01*
X-64089273Y-94617785D01*
X-64332045Y-94517226D01*
X-64589771Y-94465961D01*
X-64852547Y-94465961D01*
X-65110273Y-94517226D01*
X-65353045Y-94617785D01*
X-65571535Y-94763775D01*
X-65757345Y-94949585D01*
X-65903335Y-95168075D01*
X-65991159Y-95380102D01*
X-66078983Y-95168075D01*
X-66224973Y-94949585D01*
X-66410783Y-94763775D01*
X-66629273Y-94617785D01*
X-66872045Y-94517226D01*
X-67129771Y-94465961D01*
X-67392547Y-94465961D01*
X-67650273Y-94517226D01*
X-67893045Y-94617785D01*
X-68111535Y-94763775D01*
X-68297345Y-94949585D01*
X-68443335Y-95168075D01*
X-68531159Y-95380102D01*
X-68618983Y-95168075D01*
X-68764973Y-94949585D01*
X-68950783Y-94763775D01*
X-69169273Y-94617785D01*
X-69412045Y-94517226D01*
X-69669771Y-94465961D01*
X-69932547Y-94465961D01*
X-70190273Y-94517226D01*
X-70433045Y-94617785D01*
X-70651535Y-94763775D01*
X-70837345Y-94949585D01*
X-70983335Y-95168075D01*
X-71071159Y-95380102D01*
X-71158983Y-95168075D01*
X-71304973Y-94949585D01*
X-71490783Y-94763775D01*
X-71709273Y-94617785D01*
X-71952045Y-94517226D01*
X-72209771Y-94465961D01*
X-72472547Y-94465961D01*
X-72730273Y-94517226D01*
X-72973045Y-94617785D01*
X-73191535Y-94763775D01*
X-73377345Y-94949585D01*
X-73523335Y-95168075D01*
X-73623894Y-95410847D01*
X-73675159Y-95668573D01*
X-77357159Y-95668573D01*
X-77408424Y-95410847D01*
X-77508983Y-95168075D01*
X-77654973Y-94949585D01*
X-77840783Y-94763775D01*
X-78059273Y-94617785D01*
X-78302045Y-94517226D01*
X-78559771Y-94465961D01*
X-78822547Y-94465961D01*
X-79080273Y-94517226D01*
X-79323045Y-94617785D01*
X-79541535Y-94763775D01*
X-79727345Y-94949585D01*
X-79873335Y-95168075D01*
X-79961159Y-95380102D01*
X-80048983Y-95168075D01*
X-80194973Y-94949585D01*
X-80380783Y-94763775D01*
X-80599273Y-94617785D01*
X-80842045Y-94517226D01*
X-81099771Y-94465961D01*
X-81362547Y-94465961D01*
X-81620273Y-94517226D01*
X-81863045Y-94617785D01*
X-82081535Y-94763775D01*
X-82267345Y-94949585D01*
X-82413335Y-95168075D01*
X-82501159Y-95380102D01*
X-82588983Y-95168075D01*
X-82734973Y-94949585D01*
X-82920783Y-94763775D01*
X-83139273Y-94617785D01*
X-83382045Y-94517226D01*
X-83639771Y-94465961D01*
X-83902547Y-94465961D01*
X-84160273Y-94517226D01*
X-84403045Y-94617785D01*
X-84621535Y-94763775D01*
X-84807345Y-94949585D01*
X-84953335Y-95168075D01*
X-85041159Y-95380102D01*
X-85128983Y-95168075D01*
X-85274973Y-94949585D01*
X-85460783Y-94763775D01*
X-85679273Y-94617785D01*
X-85922045Y-94517226D01*
X-86179771Y-94465961D01*
X-86442547Y-94465961D01*
X-86700273Y-94517226D01*
X-86943045Y-94617785D01*
X-87161535Y-94763775D01*
X-87347345Y-94949585D01*
X-87493335Y-95168075D01*
X-87593894Y-95410847D01*
X-87645159Y-95668573D01*
X-91288000Y-95668573D01*
X-91288000Y-93937999D01*
X-91126497Y-94179705D01*
X-90870903Y-94435299D01*
X-90570358Y-94636117D01*
X-90236409Y-94774443D01*
X-89881891Y-94844961D01*
X-89520427Y-94844961D01*
X-89165909Y-94774443D01*
X-88831960Y-94636117D01*
X-88531415Y-94435299D01*
X-88275821Y-94179705D01*
X-88075003Y-93879160D01*
X-87936677Y-93545211D01*
X-87866159Y-93190693D01*
X-87866159Y-93128573D01*
X-86375159Y-93128573D01*
X-86375159Y-93391349D01*
X-86323894Y-93649075D01*
X-86223335Y-93891847D01*
X-86077345Y-94110337D01*
X-85891535Y-94296147D01*
X-85673045Y-94442137D01*
X-85430273Y-94542696D01*
X-85172547Y-94593961D01*
X-84909771Y-94593961D01*
X-84652045Y-94542696D01*
X-84409273Y-94442137D01*
X-84190783Y-94296147D01*
X-84004973Y-94110337D01*
X-83858983Y-93891847D01*
X-83771159Y-93679820D01*
X-83683335Y-93891847D01*
X-83537345Y-94110337D01*
X-83351535Y-94296147D01*
X-83133045Y-94442137D01*
X-82890273Y-94542696D01*
X-82632547Y-94593961D01*
X-82369771Y-94593961D01*
X-82112045Y-94542696D01*
X-81869273Y-94442137D01*
X-81650783Y-94296147D01*
X-81464973Y-94110337D01*
X-81318983Y-93891847D01*
X-81231159Y-93679820D01*
X-81143335Y-93891847D01*
X-80997345Y-94110337D01*
X-80811535Y-94296147D01*
X-80593045Y-94442137D01*
X-80350273Y-94542696D01*
X-80092547Y-94593961D01*
X-79829771Y-94593961D01*
X-79572045Y-94542696D01*
X-79329273Y-94442137D01*
X-79110783Y-94296147D01*
X-78924973Y-94110337D01*
X-78778983Y-93891847D01*
X-78691159Y-93679820D01*
X-78603335Y-93891847D01*
X-78457345Y-94110337D01*
X-78271535Y-94296147D01*
X-78053045Y-94442137D01*
X-77810273Y-94542696D01*
X-77552547Y-94593961D01*
X-77289771Y-94593961D01*
X-77032045Y-94542696D01*
X-76789273Y-94442137D01*
X-76570783Y-94296147D01*
X-76384973Y-94110337D01*
X-76238983Y-93891847D01*
X-76138424Y-93649075D01*
X-76087159Y-93391349D01*
X-76087159Y-93128573D01*
X-72405159Y-93128573D01*
X-72405159Y-93391349D01*
X-72353894Y-93649075D01*
X-72253335Y-93891847D01*
X-72107345Y-94110337D01*
X-71921535Y-94296147D01*
X-71703045Y-94442137D01*
X-71460273Y-94542696D01*
X-71202547Y-94593961D01*
X-70939771Y-94593961D01*
X-70682045Y-94542696D01*
X-70439273Y-94442137D01*
X-70220783Y-94296147D01*
X-70034973Y-94110337D01*
X-69888983Y-93891847D01*
X-69801159Y-93679820D01*
X-69713335Y-93891847D01*
X-69567345Y-94110337D01*
X-69381535Y-94296147D01*
X-69163045Y-94442137D01*
X-68920273Y-94542696D01*
X-68662547Y-94593961D01*
X-68399771Y-94593961D01*
X-68142045Y-94542696D01*
X-67899273Y-94442137D01*
X-67680783Y-94296147D01*
X-67494973Y-94110337D01*
X-67348983Y-93891847D01*
X-67261159Y-93679820D01*
X-67173335Y-93891847D01*
X-67027345Y-94110337D01*
X-66841535Y-94296147D01*
X-66623045Y-94442137D01*
X-66380273Y-94542696D01*
X-66122547Y-94593961D01*
X-65859771Y-94593961D01*
X-65602045Y-94542696D01*
X-65359273Y-94442137D01*
X-65140783Y-94296147D01*
X-64954973Y-94110337D01*
X-64808983Y-93891847D01*
X-64721159Y-93679820D01*
X-64633335Y-93891847D01*
X-64487345Y-94110337D01*
X-64301535Y-94296147D01*
X-64083045Y-94442137D01*
X-63840273Y-94542696D01*
X-63582547Y-94593961D01*
X-63319771Y-94593961D01*
X-63062045Y-94542696D01*
X-62819273Y-94442137D01*
X-62600783Y-94296147D01*
X-62414973Y-94110337D01*
X-62268983Y-93891847D01*
X-62168424Y-93649075D01*
X-62117159Y-93391349D01*
X-62117159Y-93128573D01*
X-62168424Y-92870847D01*
X-62268983Y-92628075D01*
X-62414973Y-92409585D01*
X-62600783Y-92223775D01*
X-62819273Y-92077785D01*
X-63062045Y-91977226D01*
X-63319771Y-91925961D01*
X-63582547Y-91925961D01*
X-63840273Y-91977226D01*
X-64083045Y-92077785D01*
X-64301535Y-92223775D01*
X-64487345Y-92409585D01*
X-64633335Y-92628075D01*
X-64721159Y-92840102D01*
X-64808983Y-92628075D01*
X-64954973Y-92409585D01*
X-65140783Y-92223775D01*
X-65359273Y-92077785D01*
X-65602045Y-91977226D01*
X-65859771Y-91925961D01*
X-66122547Y-91925961D01*
X-66380273Y-91977226D01*
X-66623045Y-92077785D01*
X-66841535Y-92223775D01*
X-67027345Y-92409585D01*
X-67173335Y-92628075D01*
X-67261159Y-92840102D01*
X-67348983Y-92628075D01*
X-67494973Y-92409585D01*
X-67680783Y-92223775D01*
X-67899273Y-92077785D01*
X-68142045Y-91977226D01*
X-68399771Y-91925961D01*
X-68662547Y-91925961D01*
X-68920273Y-91977226D01*
X-69163045Y-92077785D01*
X-69381535Y-92223775D01*
X-69567345Y-92409585D01*
X-69713335Y-92628075D01*
X-69801159Y-92840102D01*
X-69888983Y-92628075D01*
X-70034973Y-92409585D01*
X-70220783Y-92223775D01*
X-70439273Y-92077785D01*
X-70682045Y-91977226D01*
X-70939771Y-91925961D01*
X-71202547Y-91925961D01*
X-71460273Y-91977226D01*
X-71703045Y-92077785D01*
X-71921535Y-92223775D01*
X-72107345Y-92409585D01*
X-72253335Y-92628075D01*
X-72353894Y-92870847D01*
X-72405159Y-93128573D01*
X-76087159Y-93128573D01*
X-76138424Y-92870847D01*
X-76238983Y-92628075D01*
X-76384973Y-92409585D01*
X-76570783Y-92223775D01*
X-76789273Y-92077785D01*
X-77032045Y-91977226D01*
X-77289771Y-91925961D01*
X-77552547Y-91925961D01*
X-77810273Y-91977226D01*
X-78053045Y-92077785D01*
X-78271535Y-92223775D01*
X-78457345Y-92409585D01*
X-78603335Y-92628075D01*
X-78691159Y-92840102D01*
X-78778983Y-92628075D01*
X-78924973Y-92409585D01*
X-79110783Y-92223775D01*
X-79329273Y-92077785D01*
X-79572045Y-91977226D01*
X-79829771Y-91925961D01*
X-80092547Y-91925961D01*
X-80350273Y-91977226D01*
X-80593045Y-92077785D01*
X-80811535Y-92223775D01*
X-80997345Y-92409585D01*
X-81143335Y-92628075D01*
X-81231159Y-92840102D01*
X-81318983Y-92628075D01*
X-81464973Y-92409585D01*
X-81650783Y-92223775D01*
X-81869273Y-92077785D01*
X-82112045Y-91977226D01*
X-82369771Y-91925961D01*
X-82632547Y-91925961D01*
X-82890273Y-91977226D01*
X-83133045Y-92077785D01*
X-83351535Y-92223775D01*
X-83537345Y-92409585D01*
X-83683335Y-92628075D01*
X-83771159Y-92840102D01*
X-83858983Y-92628075D01*
X-84004973Y-92409585D01*
X-84190783Y-92223775D01*
X-84409273Y-92077785D01*
X-84652045Y-91977226D01*
X-84909771Y-91925961D01*
X-85172547Y-91925961D01*
X-85430273Y-91977226D01*
X-85673045Y-92077785D01*
X-85891535Y-92223775D01*
X-86077345Y-92409585D01*
X-86223335Y-92628075D01*
X-86323894Y-92870847D01*
X-86375159Y-93128573D01*
X-87866159Y-93128573D01*
X-87866159Y-92829229D01*
X-87936677Y-92474711D01*
X-88075003Y-92140762D01*
X-88275821Y-91840217D01*
X-88531415Y-91584623D01*
X-88831960Y-91383805D01*
X-89165909Y-91245479D01*
X-89520427Y-91174961D01*
X-89881891Y-91174961D01*
X-90236409Y-91245479D01*
X-90570358Y-91383805D01*
X-90870903Y-91584623D01*
X-91126497Y-91840217D01*
X-91288000Y-92081923D01*
X-91288000Y-89088573D01*
X-87645159Y-89088573D01*
X-87645159Y-89351349D01*
X-87593894Y-89609075D01*
X-87493335Y-89851847D01*
X-87347345Y-90070337D01*
X-87161535Y-90256147D01*
X-86943045Y-90402137D01*
X-86700273Y-90502696D01*
X-86442547Y-90553961D01*
X-86179771Y-90553961D01*
X-85922045Y-90502696D01*
X-85679273Y-90402137D01*
X-85460783Y-90256147D01*
X-85274973Y-90070337D01*
X-85128983Y-89851847D01*
X-85041159Y-89639820D01*
X-84953335Y-89851847D01*
X-84807345Y-90070337D01*
X-84621535Y-90256147D01*
X-84403045Y-90402137D01*
X-84160273Y-90502696D01*
X-83902547Y-90553961D01*
X-83639771Y-90553961D01*
X-83382045Y-90502696D01*
X-83139273Y-90402137D01*
X-82920783Y-90256147D01*
X-82734973Y-90070337D01*
X-82588983Y-89851847D01*
X-82501159Y-89639820D01*
X-82413335Y-89851847D01*
X-82267345Y-90070337D01*
X-82081535Y-90256147D01*
X-81863045Y-90402137D01*
X-81620273Y-90502696D01*
X-81362547Y-90553961D01*
X-81099771Y-90553961D01*
X-80842045Y-90502696D01*
X-80599273Y-90402137D01*
X-80380783Y-90256147D01*
X-80194973Y-90070337D01*
X-80048983Y-89851847D01*
X-79961159Y-89639820D01*
X-79873335Y-89851847D01*
X-79727345Y-90070337D01*
X-79541535Y-90256147D01*
X-79323045Y-90402137D01*
X-79080273Y-90502696D01*
X-78822547Y-90553961D01*
X-78559771Y-90553961D01*
X-78302045Y-90502696D01*
X-78059273Y-90402137D01*
X-77840783Y-90256147D01*
X-77654973Y-90070337D01*
X-77577881Y-89954961D01*
X-77115262Y-89954961D01*
X-77079157Y-89958517D01*
X-77043052Y-89954961D01*
X-76935072Y-89944326D01*
X-76796524Y-89902298D01*
X-76668837Y-89834048D01*
X-76556919Y-89742199D01*
X-76533899Y-89714149D01*
X-76025843Y-89206094D01*
X-75997803Y-89183082D01*
X-75974790Y-89155041D01*
X-75974787Y-89155038D01*
X-75949155Y-89123805D01*
X-75905953Y-89071164D01*
X-75837703Y-88943477D01*
X-75795675Y-88804929D01*
X-75785040Y-88696949D01*
X-75785040Y-88696948D01*
X-75781484Y-88660844D01*
X-75785040Y-88624739D01*
X-75785040Y-86552943D01*
X-75750358Y-86576117D01*
X-75416409Y-86714443D01*
X-75061891Y-86784961D01*
X-74700427Y-86784961D01*
X-74345909Y-86714443D01*
X-74011960Y-86576117D01*
X-73711415Y-86375299D01*
X-73455821Y-86119705D01*
X-73255003Y-85819160D01*
X-73116677Y-85485211D01*
X-73046159Y-85130693D01*
X-73046159Y-84769229D01*
X-73116677Y-84414711D01*
X-73255003Y-84080762D01*
X-73455821Y-83780217D01*
X-73711415Y-83524623D01*
X-74011960Y-83323805D01*
X-74345909Y-83185479D01*
X-74700427Y-83114961D01*
X-75061891Y-83114961D01*
X-75416409Y-83185479D01*
X-75750358Y-83323805D01*
X-75785040Y-83346979D01*
X-75785040Y-82063611D01*
X-71784241Y-82063611D01*
X-71686917Y-82337972D01*
X-71537938Y-82588075D01*
X-71343029Y-82804308D01*
X-71109680Y-82978361D01*
X-70846859Y-83103545D01*
X-70699650Y-83148196D01*
X-70469760Y-83026875D01*
X-70469760Y-81833720D01*
X-71663574Y-81833720D01*
X-71784241Y-82063611D01*
X-75785040Y-82063611D01*
X-75785040Y-81349829D01*
X-71784241Y-81349829D01*
X-71663574Y-81579720D01*
X-70469760Y-81579720D01*
X-70469760Y-80386565D01*
X-70215760Y-80386565D01*
X-70215760Y-81579720D01*
X-70195760Y-81579720D01*
X-70195760Y-81833720D01*
X-70215760Y-81833720D01*
X-70215760Y-83026875D01*
X-69985870Y-83148196D01*
X-69838661Y-83103545D01*
X-69575840Y-82978361D01*
X-69342491Y-82804308D01*
X-69266726Y-82720254D01*
X-69242262Y-82800900D01*
X-69183297Y-82911214D01*
X-69103945Y-83007905D01*
X-69007254Y-83087257D01*
X-68896940Y-83146222D01*
X-68777242Y-83182532D01*
X-68652760Y-83194792D01*
X-66952760Y-83194792D01*
X-66828278Y-83182532D01*
X-66708580Y-83146222D01*
X-66598266Y-83087257D01*
X-66501575Y-83007905D01*
X-66422223Y-82911214D01*
X-66363258Y-82800900D01*
X-66326948Y-82681202D01*
X-66314688Y-82556720D01*
X-66314688Y-80856720D01*
X-66326948Y-80732238D01*
X-66363258Y-80612540D01*
X-66422223Y-80502226D01*
X-66501575Y-80405535D01*
X-66598266Y-80326183D01*
X-66708580Y-80267218D01*
X-66828278Y-80230908D01*
X-66952760Y-80218648D01*
X-68652760Y-80218648D01*
X-68777242Y-80230908D01*
X-68896940Y-80267218D01*
X-69007254Y-80326183D01*
X-69103945Y-80405535D01*
X-69183297Y-80502226D01*
X-69242262Y-80612540D01*
X-69266726Y-80693186D01*
X-69342491Y-80609132D01*
X-69575840Y-80435079D01*
X-69838661Y-80309895D01*
X-69985870Y-80265244D01*
X-70215760Y-80386565D01*
X-70469760Y-80386565D01*
X-70699650Y-80265244D01*
X-70846859Y-80309895D01*
X-71109680Y-80435079D01*
X-71343029Y-80609132D01*
X-71537938Y-80825365D01*
X-71686917Y-81075468D01*
X-71784241Y-81349829D01*
X-75785040Y-81349829D01*
X-75785040Y-77034315D01*
X-75601847Y-77156720D01*
X-75340694Y-77264893D01*
X-75063455Y-77320040D01*
X-74780785Y-77320040D01*
X-74503546Y-77264893D01*
X-74242393Y-77156720D01*
X-74007361Y-76999677D01*
X-73807483Y-76799799D01*
X-73650440Y-76564767D01*
X-73542267Y-76303614D01*
X-73537120Y-76277739D01*
X-73531973Y-76303614D01*
X-73423800Y-76564767D01*
X-73266757Y-76799799D01*
X-73066879Y-76999677D01*
X-72831847Y-77156720D01*
X-72570694Y-77264893D01*
X-72293455Y-77320040D01*
X-72010785Y-77320040D01*
X-71733546Y-77264893D01*
X-71472393Y-77156720D01*
X-71237361Y-76999677D01*
X-71037483Y-76799799D01*
X-70880440Y-76564767D01*
X-70772267Y-76303614D01*
X-70767120Y-76277739D01*
X-70761973Y-76303614D01*
X-70653800Y-76564767D01*
X-70496757Y-76799799D01*
X-70296879Y-76999677D01*
X-70061847Y-77156720D01*
X-69800694Y-77264893D01*
X-69523455Y-77320040D01*
X-69240785Y-77320040D01*
X-68963546Y-77264893D01*
X-68702393Y-77156720D01*
X-68467361Y-76999677D01*
X-68381945Y-76914261D01*
X-63569519Y-81726688D01*
X-63569520Y-85345961D01*
X-63582547Y-85345961D01*
X-63840273Y-85397226D01*
X-64083045Y-85497785D01*
X-64301535Y-85643775D01*
X-64487345Y-85829585D01*
X-64633335Y-86048075D01*
X-64721159Y-86260102D01*
X-64808983Y-86048075D01*
X-64954973Y-85829585D01*
X-65140783Y-85643775D01*
X-65359273Y-85497785D01*
X-65602045Y-85397226D01*
X-65859771Y-85345961D01*
X-66122547Y-85345961D01*
X-66380273Y-85397226D01*
X-66623045Y-85497785D01*
X-66841535Y-85643775D01*
X-67027345Y-85829585D01*
X-67173335Y-86048075D01*
X-67261159Y-86260102D01*
X-67348983Y-86048075D01*
X-67494973Y-85829585D01*
X-67680783Y-85643775D01*
X-67899273Y-85497785D01*
X-68142045Y-85397226D01*
X-68399771Y-85345961D01*
X-68662547Y-85345961D01*
X-68920273Y-85397226D01*
X-69163045Y-85497785D01*
X-69381535Y-85643775D01*
X-69567345Y-85829585D01*
X-69713335Y-86048075D01*
X-69801159Y-86260102D01*
X-69888983Y-86048075D01*
X-70034973Y-85829585D01*
X-70220783Y-85643775D01*
X-70439273Y-85497785D01*
X-70682045Y-85397226D01*
X-70939771Y-85345961D01*
X-71202547Y-85345961D01*
X-71460273Y-85397226D01*
X-71703045Y-85497785D01*
X-71921535Y-85643775D01*
X-72107345Y-85829585D01*
X-72253335Y-86048075D01*
X-72353894Y-86290847D01*
X-72405159Y-86548573D01*
X-72405159Y-86811349D01*
X-72353894Y-87069075D01*
X-72253335Y-87311847D01*
X-72107345Y-87530337D01*
X-71921535Y-87716147D01*
X-71703045Y-87862137D01*
X-71460273Y-87962696D01*
X-71202547Y-88013961D01*
X-70939771Y-88013961D01*
X-70682045Y-87962696D01*
X-70439273Y-87862137D01*
X-70220783Y-87716147D01*
X-70034973Y-87530337D01*
X-69888983Y-87311847D01*
X-69801159Y-87099820D01*
X-69713335Y-87311847D01*
X-69567345Y-87530337D01*
X-69381535Y-87716147D01*
X-69163045Y-87862137D01*
X-68920273Y-87962696D01*
X-68662547Y-88013961D01*
X-68399771Y-88013961D01*
X-68142045Y-87962696D01*
X-67899273Y-87862137D01*
X-67680783Y-87716147D01*
X-67494973Y-87530337D01*
X-67348983Y-87311847D01*
X-67261159Y-87099820D01*
X-67173335Y-87311847D01*
X-67027345Y-87530337D01*
X-66841535Y-87716147D01*
X-66623045Y-87862137D01*
X-66380273Y-87962696D01*
X-66122547Y-88013961D01*
X-65859771Y-88013961D01*
X-65602045Y-87962696D01*
X-65359273Y-87862137D01*
X-65140783Y-87716147D01*
X-64954973Y-87530337D01*
X-64808983Y-87311847D01*
X-64721159Y-87099820D01*
X-64633335Y-87311847D01*
X-64487345Y-87530337D01*
X-64301535Y-87716147D01*
X-64083045Y-87862137D01*
X-63840273Y-87962696D01*
X-63582547Y-88013961D01*
X-63566071Y-88013961D01*
X-63803334Y-88251224D01*
X-63870783Y-88183775D01*
X-64089273Y-88037785D01*
X-64332045Y-87937226D01*
X-64589771Y-87885961D01*
X-64852547Y-87885961D01*
X-65110273Y-87937226D01*
X-65353045Y-88037785D01*
X-65571535Y-88183775D01*
X-65757345Y-88369585D01*
X-65903335Y-88588075D01*
X-65991159Y-88800102D01*
X-66078983Y-88588075D01*
X-66224973Y-88369585D01*
X-66410783Y-88183775D01*
X-66629273Y-88037785D01*
X-66872045Y-87937226D01*
X-67129771Y-87885961D01*
X-67392547Y-87885961D01*
X-67650273Y-87937226D01*
X-67893045Y-88037785D01*
X-68111535Y-88183775D01*
X-68297345Y-88369585D01*
X-68443335Y-88588075D01*
X-68531159Y-88800102D01*
X-68618983Y-88588075D01*
X-68764973Y-88369585D01*
X-68950783Y-88183775D01*
X-69169273Y-88037785D01*
X-69412045Y-87937226D01*
X-69669771Y-87885961D01*
X-69932547Y-87885961D01*
X-70190273Y-87937226D01*
X-70433045Y-88037785D01*
X-70651535Y-88183775D01*
X-70837345Y-88369585D01*
X-70983335Y-88588075D01*
X-71071159Y-88800102D01*
X-71158983Y-88588075D01*
X-71304973Y-88369585D01*
X-71490783Y-88183775D01*
X-71709273Y-88037785D01*
X-71952045Y-87937226D01*
X-72209771Y-87885961D01*
X-72472547Y-87885961D01*
X-72730273Y-87937226D01*
X-72973045Y-88037785D01*
X-73191535Y-88183775D01*
X-73377345Y-88369585D01*
X-73523335Y-88588075D01*
X-73623894Y-88830847D01*
X-73675159Y-89088573D01*
X-73675159Y-89351349D01*
X-73623894Y-89609075D01*
X-73523335Y-89851847D01*
X-73377345Y-90070337D01*
X-73191535Y-90256147D01*
X-72973045Y-90402137D01*
X-72730273Y-90502696D01*
X-72472547Y-90553961D01*
X-72209771Y-90553961D01*
X-71952045Y-90502696D01*
X-71709273Y-90402137D01*
X-71490783Y-90256147D01*
X-71304973Y-90070337D01*
X-71158983Y-89851847D01*
X-71071159Y-89639820D01*
X-70983335Y-89851847D01*
X-70837345Y-90070337D01*
X-70651535Y-90256147D01*
X-70433045Y-90402137D01*
X-70190273Y-90502696D01*
X-69932547Y-90553961D01*
X-69669771Y-90553961D01*
X-69412045Y-90502696D01*
X-69169273Y-90402137D01*
X-68950783Y-90256147D01*
X-68764973Y-90070337D01*
X-68618983Y-89851847D01*
X-68531159Y-89639820D01*
X-68443335Y-89851847D01*
X-68297345Y-90070337D01*
X-68111535Y-90256147D01*
X-67893045Y-90402137D01*
X-67650273Y-90502696D01*
X-67392547Y-90553961D01*
X-67129771Y-90553961D01*
X-66872045Y-90502696D01*
X-66629273Y-90402137D01*
X-66410783Y-90256147D01*
X-66224973Y-90070337D01*
X-66078983Y-89851847D01*
X-65991159Y-89639820D01*
X-65903335Y-89851847D01*
X-65757345Y-90070337D01*
X-65571535Y-90256147D01*
X-65353045Y-90402137D01*
X-65110273Y-90502696D01*
X-64852547Y-90553961D01*
X-64589771Y-90553961D01*
X-64332045Y-90502696D01*
X-64089273Y-90402137D01*
X-63870783Y-90256147D01*
X-63684973Y-90070337D01*
X-63601637Y-89945616D01*
X-63588539Y-89944326D01*
X-63449991Y-89902298D01*
X-63322304Y-89834048D01*
X-63210386Y-89742199D01*
X-63187366Y-89714149D01*
X-62040312Y-88567096D01*
X-62012272Y-88544084D01*
X-61989259Y-88516043D01*
X-61989256Y-88516040D01*
X-61920423Y-88432167D01*
X-61920422Y-88432166D01*
X-61852172Y-88304479D01*
X-61810144Y-88165931D01*
X-61799509Y-88057951D01*
X-61799509Y-88057942D01*
X-61795954Y-88021847D01*
X-61799509Y-87985752D01*
X-61799509Y-81313747D01*
X-61795954Y-81277650D01*
X-61799509Y-81241553D01*
X-61799509Y-81241546D01*
X-61810144Y-81133566D01*
X-61852172Y-80995018D01*
X-61920422Y-80867331D01*
X-62012271Y-80755413D01*
X-62040316Y-80732397D01*
X-65340174Y-77432539D01*
X-64090014Y-77432539D01*
X-63873892Y-77799298D01*
X-63414015Y-78039978D01*
X-62916022Y-78186315D01*
X-62399049Y-78232688D01*
X-61882961Y-78177313D01*
X-61387594Y-78022319D01*
X-60970348Y-77799298D01*
X-60754226Y-77432539D01*
X-62422120Y-75764645D01*
X-64090014Y-77432539D01*
X-65340174Y-77432539D01*
X-67164602Y-75608111D01*
X-65069768Y-75608111D01*
X-65014393Y-76124199D01*
X-64859399Y-76619566D01*
X-64636378Y-77036812D01*
X-64269619Y-77252934D01*
X-62601725Y-75585040D01*
X-62242515Y-75585040D01*
X-60574621Y-77252934D01*
X-60207862Y-77036812D01*
X-59967182Y-76576935D01*
X-59820845Y-76078942D01*
X-59774472Y-75561969D01*
X-59829847Y-75045881D01*
X-59984841Y-74550514D01*
X-60207862Y-74133268D01*
X-60574621Y-73917146D01*
X-62242515Y-75585040D01*
X-62601725Y-75585040D01*
X-64269619Y-73917146D01*
X-64636378Y-74133268D01*
X-64877058Y-74593145D01*
X-65023395Y-75091138D01*
X-65069768Y-75608111D01*
X-67164602Y-75608111D01*
X-69035172Y-73737541D01*
X-64090014Y-73737541D01*
X-62422120Y-75405435D01*
X-60754226Y-73737541D01*
X-60970348Y-73370782D01*
X-61430225Y-73130102D01*
X-61928218Y-72983765D01*
X-62445191Y-72937392D01*
X-62961279Y-72992767D01*
X-63456646Y-73147761D01*
X-63873892Y-73370782D01*
X-64090014Y-73737541D01*
X-69035172Y-73737541D01*
X-69374298Y-73398416D01*
X-69332120Y-73186375D01*
X-69332120Y-72903705D01*
X-69387267Y-72626466D01*
X-69495440Y-72365313D01*
X-69652483Y-72130281D01*
X-69852361Y-71930403D01*
X-70087393Y-71773360D01*
X-70348546Y-71665187D01*
X-70625785Y-71610040D01*
X-70908455Y-71610040D01*
X-71185694Y-71665187D01*
X-71446847Y-71773360D01*
X-71681879Y-71930403D01*
X-71881757Y-72130281D01*
X-72038800Y-72365313D01*
X-72146973Y-72626466D01*
X-72152120Y-72652341D01*
X-72157267Y-72626466D01*
X-72265440Y-72365313D01*
X-72422483Y-72130281D01*
X-72622361Y-71930403D01*
X-72857393Y-71773360D01*
X-73118546Y-71665187D01*
X-73395785Y-71610040D01*
X-73678455Y-71610040D01*
X-73955694Y-71665187D01*
X-74216847Y-71773360D01*
X-74451879Y-71930403D01*
X-74651757Y-72130281D01*
X-74672054Y-72160657D01*
X-75281861Y-71550851D01*
X-75304881Y-71522801D01*
X-75416799Y-71430952D01*
X-75544486Y-71362702D01*
X-75683034Y-71320674D01*
X-75791014Y-71310039D01*
X-75827119Y-71306483D01*
X-75863224Y-71310039D01*
X-76751017Y-71310039D01*
X-76787122Y-71306483D01*
X-76931207Y-71320674D01*
X-76973235Y-71333423D01*
X-77069754Y-71362702D01*
X-77197441Y-71430952D01*
X-77309359Y-71522801D01*
X-77332375Y-71550847D01*
X-77801313Y-72019785D01*
X-77829358Y-72042801D01*
X-77921208Y-72154719D01*
X-77932295Y-72175461D01*
X-77962483Y-72130281D01*
X-78162361Y-71930403D01*
X-78397393Y-71773360D01*
X-78658546Y-71665187D01*
X-78935785Y-71610040D01*
X-79218455Y-71610040D01*
X-79495694Y-71665187D01*
X-79756847Y-71773360D01*
X-79991879Y-71930403D01*
X-80191757Y-72130281D01*
X-80348800Y-72365313D01*
X-80456973Y-72626466D01*
X-80512120Y-72903705D01*
X-80512120Y-73186375D01*
X-80456973Y-73463614D01*
X-80348800Y-73724767D01*
X-80191757Y-73959799D01*
X-79991879Y-74159677D01*
X-79756847Y-74316720D01*
X-79601999Y-74380860D01*
X-79601999Y-74452889D01*
X-79662120Y-74446968D01*
X-81262120Y-74446968D01*
X-81386602Y-74459228D01*
X-81506300Y-74495538D01*
X-81616614Y-74554503D01*
X-81713305Y-74633855D01*
X-81792657Y-74730546D01*
X-81851622Y-74840860D01*
X-81887932Y-74960558D01*
X-81900192Y-75085040D01*
X-81900192Y-76685040D01*
X-81887932Y-76809522D01*
X-81851622Y-76929220D01*
X-81792657Y-77039534D01*
X-81713305Y-77136225D01*
X-81616614Y-77215577D01*
X-81506300Y-77274542D01*
X-81386602Y-77310852D01*
X-81262120Y-77323112D01*
X-79662120Y-77323112D01*
X-79601999Y-77317191D01*
X-79602000Y-80365877D01*
X-79809171Y-80451690D01*
X-80052392Y-80614205D01*
X-80184247Y-80746060D01*
X-80206258Y-80673500D01*
X-80265223Y-80563186D01*
X-80344575Y-80466495D01*
X-80441266Y-80387143D01*
X-80551580Y-80328178D01*
X-80671278Y-80291868D01*
X-80795760Y-80279608D01*
X-82495760Y-80279608D01*
X-82620242Y-80291868D01*
X-82739940Y-80328178D01*
X-82850254Y-80387143D01*
X-82946945Y-80466495D01*
X-83026297Y-80563186D01*
X-83085262Y-80673500D01*
X-83121572Y-80793198D01*
X-83133832Y-80917680D01*
X-83133832Y-82617680D01*
X-83121572Y-82742162D01*
X-83085262Y-82861860D01*
X-83026297Y-82972174D01*
X-82946945Y-83068865D01*
X-82850254Y-83148217D01*
X-82739940Y-83207182D01*
X-82620242Y-83243492D01*
X-82495760Y-83255752D01*
X-80795760Y-83255752D01*
X-80671278Y-83243492D01*
X-80551580Y-83207182D01*
X-80441266Y-83148217D01*
X-80344575Y-83068865D01*
X-80265223Y-82972174D01*
X-80206258Y-82861860D01*
X-80184247Y-82789300D01*
X-80052392Y-82921155D01*
X-79809171Y-83083670D01*
X-79538918Y-83195612D01*
X-79252020Y-83252680D01*
X-78959500Y-83252680D01*
X-78672602Y-83195612D01*
X-78402349Y-83083670D01*
X-78159128Y-82921155D01*
X-77952285Y-82714312D01*
X-77789770Y-82471091D01*
X-77677828Y-82200838D01*
X-77620760Y-81913940D01*
X-77620760Y-81621420D01*
X-77677828Y-81334522D01*
X-77789770Y-81064269D01*
X-77952285Y-80821048D01*
X-78132000Y-80641333D01*
X-78132000Y-77256068D01*
X-78110694Y-77264893D01*
X-77833455Y-77320040D01*
X-77564919Y-77320040D01*
X-77564920Y-85348422D01*
X-77810273Y-85397226D01*
X-78053045Y-85497785D01*
X-78271535Y-85643775D01*
X-78457345Y-85829585D01*
X-78603335Y-86048075D01*
X-78691159Y-86260102D01*
X-78778983Y-86048075D01*
X-78924973Y-85829585D01*
X-79110783Y-85643775D01*
X-79329273Y-85497785D01*
X-79572045Y-85397226D01*
X-79829771Y-85345961D01*
X-80092547Y-85345961D01*
X-80350273Y-85397226D01*
X-80593045Y-85497785D01*
X-80811535Y-85643775D01*
X-80997345Y-85829585D01*
X-81143335Y-86048075D01*
X-81231159Y-86260102D01*
X-81318983Y-86048075D01*
X-81464973Y-85829585D01*
X-81650783Y-85643775D01*
X-81869273Y-85497785D01*
X-82112045Y-85397226D01*
X-82369771Y-85345961D01*
X-82632547Y-85345961D01*
X-82890273Y-85397226D01*
X-83133045Y-85497785D01*
X-83351535Y-85643775D01*
X-83537345Y-85829585D01*
X-83683335Y-86048075D01*
X-83771159Y-86260102D01*
X-83858983Y-86048075D01*
X-84004973Y-85829585D01*
X-84190783Y-85643775D01*
X-84409273Y-85497785D01*
X-84652045Y-85397226D01*
X-84909771Y-85345961D01*
X-85172547Y-85345961D01*
X-85430273Y-85397226D01*
X-85673045Y-85497785D01*
X-85891535Y-85643775D01*
X-86077345Y-85829585D01*
X-86223335Y-86048075D01*
X-86323894Y-86290847D01*
X-86375159Y-86548573D01*
X-86375159Y-86811349D01*
X-86323894Y-87069075D01*
X-86223335Y-87311847D01*
X-86077345Y-87530337D01*
X-85891535Y-87716147D01*
X-85673045Y-87862137D01*
X-85430273Y-87962696D01*
X-85172547Y-88013961D01*
X-84909771Y-88013961D01*
X-84652045Y-87962696D01*
X-84409273Y-87862137D01*
X-84190783Y-87716147D01*
X-84004973Y-87530337D01*
X-83858983Y-87311847D01*
X-83771159Y-87099820D01*
X-83683335Y-87311847D01*
X-83537345Y-87530337D01*
X-83351535Y-87716147D01*
X-83133045Y-87862137D01*
X-82890273Y-87962696D01*
X-82632547Y-88013961D01*
X-82369771Y-88013961D01*
X-82112045Y-87962696D01*
X-81869273Y-87862137D01*
X-81650783Y-87716147D01*
X-81464973Y-87530337D01*
X-81318983Y-87311847D01*
X-81231159Y-87099820D01*
X-81143335Y-87311847D01*
X-80997345Y-87530337D01*
X-80811535Y-87716147D01*
X-80593045Y-87862137D01*
X-80350273Y-87962696D01*
X-80092547Y-88013961D01*
X-79829771Y-88013961D01*
X-79572045Y-87962696D01*
X-79329273Y-87862137D01*
X-79110783Y-87716147D01*
X-78924973Y-87530337D01*
X-78778983Y-87311847D01*
X-78691159Y-87099820D01*
X-78603335Y-87311847D01*
X-78457345Y-87530337D01*
X-78271535Y-87716147D01*
X-78053045Y-87862137D01*
X-77810273Y-87962696D01*
X-77552547Y-88013961D01*
X-77289771Y-88013961D01*
X-77255040Y-88007053D01*
X-77255040Y-88356397D01*
X-77383603Y-88484961D01*
X-77577881Y-88484961D01*
X-77654973Y-88369585D01*
X-77840783Y-88183775D01*
X-78059273Y-88037785D01*
X-78302045Y-87937226D01*
X-78559771Y-87885961D01*
X-78822547Y-87885961D01*
X-79080273Y-87937226D01*
X-79323045Y-88037785D01*
X-79541535Y-88183775D01*
X-79727345Y-88369585D01*
X-79873335Y-88588075D01*
X-79961159Y-88800102D01*
X-80048983Y-88588075D01*
X-80194973Y-88369585D01*
X-80380783Y-88183775D01*
X-80599273Y-88037785D01*
X-80842045Y-87937226D01*
X-81099771Y-87885961D01*
X-81362547Y-87885961D01*
X-81620273Y-87937226D01*
X-81863045Y-88037785D01*
X-82081535Y-88183775D01*
X-82267345Y-88369585D01*
X-82413335Y-88588075D01*
X-82501159Y-88800102D01*
X-82588983Y-88588075D01*
X-82734973Y-88369585D01*
X-82920783Y-88183775D01*
X-83139273Y-88037785D01*
X-83382045Y-87937226D01*
X-83639771Y-87885961D01*
X-83902547Y-87885961D01*
X-84160273Y-87937226D01*
X-84403045Y-88037785D01*
X-84621535Y-88183775D01*
X-84807345Y-88369585D01*
X-84953335Y-88588075D01*
X-85041159Y-88800102D01*
X-85128983Y-88588075D01*
X-85274973Y-88369585D01*
X-85460783Y-88183775D01*
X-85679273Y-88037785D01*
X-85922045Y-87937226D01*
X-86179771Y-87885961D01*
X-86442547Y-87885961D01*
X-86700273Y-87937226D01*
X-86943045Y-88037785D01*
X-87161535Y-88183775D01*
X-87347345Y-88369585D01*
X-87493335Y-88588075D01*
X-87593894Y-88830847D01*
X-87645159Y-89088573D01*
X-91288000Y-89088573D01*
X-91288000Y-88277624D01*
X-91245358Y-88306117D01*
X-90911409Y-88444443D01*
X-90556891Y-88514961D01*
X-90195427Y-88514961D01*
X-89840909Y-88444443D01*
X-89506960Y-88306117D01*
X-89206415Y-88105299D01*
X-88950821Y-87849705D01*
X-88750003Y-87549160D01*
X-88611677Y-87215211D01*
X-88541159Y-86860693D01*
X-88541159Y-86499229D01*
X-88611677Y-86144711D01*
X-88750003Y-85810762D01*
X-88950821Y-85510217D01*
X-89206415Y-85254623D01*
X-89506960Y-85053805D01*
X-89840909Y-84915479D01*
X-90195427Y-84844961D01*
X-90556891Y-84844961D01*
X-90911409Y-84915479D01*
X-91245358Y-85053805D01*
X-91288000Y-85082298D01*
X-91288000Y-77432539D01*
X-89090014Y-77432539D01*
X-88873892Y-77799298D01*
X-88414015Y-78039978D01*
X-87916022Y-78186315D01*
X-87399049Y-78232688D01*
X-86882961Y-78177313D01*
X-86387594Y-78022319D01*
X-85970348Y-77799298D01*
X-85754226Y-77432539D01*
X-87422120Y-75764645D01*
X-89090014Y-77432539D01*
X-91288000Y-77432539D01*
X-91288000Y-75608111D01*
X-90069768Y-75608111D01*
X-90014393Y-76124199D01*
X-89859399Y-76619566D01*
X-89636378Y-77036812D01*
X-89269619Y-77252934D01*
X-87601725Y-75585040D01*
X-87242515Y-75585040D01*
X-85574621Y-77252934D01*
X-85207862Y-77036812D01*
X-84967182Y-76576935D01*
X-84820845Y-76078942D01*
X-84774472Y-75561969D01*
X-84829847Y-75045881D01*
X-84984841Y-74550514D01*
X-85207862Y-74133268D01*
X-85574621Y-73917146D01*
X-87242515Y-75585040D01*
X-87601725Y-75585040D01*
X-89269619Y-73917146D01*
X-89636378Y-74133268D01*
X-89877058Y-74593145D01*
X-90023395Y-75091138D01*
X-90069768Y-75608111D01*
X-91288000Y-75608111D01*
X-91288000Y-73737541D01*
X-89090014Y-73737541D01*
X-87422120Y-75405435D01*
X-85754226Y-73737541D01*
X-85970348Y-73370782D01*
X-86430225Y-73130102D01*
X-86928218Y-72983765D01*
X-87445191Y-72937392D01*
X-87961279Y-72992767D01*
X-88456646Y-73147761D01*
X-88873892Y-73370782D01*
X-89090014Y-73737541D01*
X-91288000Y-73737541D01*
X-91288000Y-68732000D01*
X-58444999Y-68732000D01*
X-58445000Y-89171888D01*
G37*
%TD.AperFunction*%
%TD*%
M02*
